M48
METRIC,LZ,000.000
;FILE_FORMAT=3:3
;TYPE=PLATED
;Layer: PTH_Through
;EasyEDA v6.5.5, 2022-08-23 09:37:03
;dbdef394597f406e9c5f1e3ded40daaf,59b13081229d43bfb627b6405b151bcb,10
;Gerber Generator version 0.2
;Holesize 1 = 0.889 mm
T01C0.889
;Holesize 2 = 0.900 mm
T02C0.900
;Holesize 3 = 0.915 mm
T03C0.915
;Holesize 4 = 0.966 mm
T04C0.966
;Holesize 5 = 1.000 mm
T05C1.000
;Holesize 6 = 1.101 mm
T06C1.101
%
G05
G90
T01
X058420Y067183
X055880Y067183
X075057Y067056
X072517Y067056
X010287Y063754
X012827Y063754
X016764Y067056
X016764Y069596
X016764Y072136
X016764Y074676
X016764Y077216
X016764Y079756
X016764Y082296
X016764Y084836
X049530Y063246
X052070Y063246
X054610Y063246
X057150Y063246
X067564Y063246
X070104Y063246
X072644Y063246
X075184Y063246
X011303Y079629
X011303Y082169
T02
X033147Y093853
X025527Y093853
T03
X011303Y084709
X060833Y063246
X063373Y063246
T04
X019304Y095250
X019304Y092710
T05
X062484Y089916
X062484Y087376
X059944Y089916
X059944Y087376
X057404Y089916
X057404Y087376
X054864Y089916
X054864Y087376
X052324Y089916
X052324Y087376
X049784Y089916
X049784Y087376
X047244Y089916
X047244Y087376
X044704Y089916
X044704Y087376
X042164Y089916
X042164Y087376
X039624Y089916
X039624Y087376
X037084Y089916
X037084Y087376
X034544Y089916
X034544Y087376
X032004Y089916
X032004Y087376
X029464Y089916
X029464Y087376
X026924Y089916
X026924Y087376
X024384Y089916
X024384Y087376
X021844Y089916
X021844Y087376
X019304Y089916
X019304Y087376
X016764Y089916
X016764Y087376
X014224Y089916
X014224Y087376
T06
X049657Y067183
X049657Y069723
X049657Y072263
X049657Y074803
X049657Y077343
X049657Y079883
X067437Y067310
X067437Y069850
X067437Y072390
X067437Y074930
X067437Y077470
X067437Y080010
M30
