G04 Layer: TopLayer*
G04 EasyEDA v6.5.5, 2022-06-30 12:06:16*
G04 14c6360a081142a8b98b93fd51069ae2,59b13081229d43bfb627b6405b151bcb,10*
G04 Gerber Generator version 0.2*
G04 Scale: 100 percent, Rotated: No, Reflected: No *
G04 Dimensions in millimeters *
G04 leading zeros omitted , absolute positions ,4 integer and 5 decimal *
%FSLAX45Y45*%
%MOMM*%

%ADD10C,0.2540*%
%ADD11C,0.5000*%
%ADD12C,0.2032*%
%ADD13R,1.5748X1.5748*%
%ADD14C,1.5748*%
%ADD15C,1.6000*%
%ADD17C,1.6510*%
%ADD18C,1.8796*%
%ADD19R,1.9000X1.9000*%
%ADD20C,1.9000*%

%LPD*%
D12*
X1891029Y6292850D02*
G01*
X1881886Y6311392D01*
X1863344Y6329934D01*
X1845055Y6339078D01*
X1807971Y6339078D01*
X1789429Y6329934D01*
X1771142Y6311392D01*
X1761744Y6292850D01*
X1752600Y6265163D01*
X1752600Y6219189D01*
X1761744Y6191250D01*
X1771142Y6172962D01*
X1789429Y6154420D01*
X1807971Y6145276D01*
X1845055Y6145276D01*
X1863344Y6154420D01*
X1881886Y6172962D01*
X1891029Y6191250D01*
X1951990Y6339078D02*
G01*
X1951990Y6200647D01*
X1961388Y6172962D01*
X1979929Y6154420D01*
X2007615Y6145276D01*
X2025904Y6145276D01*
X2053590Y6154420D01*
X2072131Y6172962D01*
X2081529Y6200647D01*
X2081529Y6339078D01*
X2142490Y6339078D02*
G01*
X2142490Y6145276D01*
X2142490Y6339078D02*
G01*
X2225547Y6339078D01*
X2253234Y6329934D01*
X2262377Y6320789D01*
X2271775Y6302247D01*
X2271775Y6283705D01*
X2262377Y6265163D01*
X2253234Y6256020D01*
X2225547Y6246876D01*
X2142490Y6246876D02*
G01*
X2225547Y6246876D01*
X2253234Y6237478D01*
X2262377Y6228334D01*
X2271775Y6209792D01*
X2271775Y6182105D01*
X2262377Y6163563D01*
X2253234Y6154420D01*
X2225547Y6145276D01*
X2142490Y6145276D01*
X2388108Y6339078D02*
G01*
X2369565Y6329934D01*
X2351024Y6311392D01*
X2341879Y6292850D01*
X2332736Y6265163D01*
X2332736Y6219189D01*
X2341879Y6191250D01*
X2351024Y6172962D01*
X2369565Y6154420D01*
X2388108Y6145276D01*
X2424938Y6145276D01*
X2443479Y6154420D01*
X2462022Y6172962D01*
X2471165Y6191250D01*
X2480309Y6219189D01*
X2480309Y6265163D01*
X2471165Y6292850D01*
X2462022Y6311392D01*
X2443479Y6329934D01*
X2424938Y6339078D01*
X2388108Y6339078D01*
X2606040Y6339078D02*
G01*
X2606040Y6145276D01*
X2541270Y6339078D02*
G01*
X2670809Y6339078D01*
X2731770Y6339078D02*
G01*
X2740913Y6329934D01*
X2750058Y6339078D01*
X2740913Y6348476D01*
X2731770Y6339078D01*
X2740913Y6274562D02*
G01*
X2740913Y6145276D01*
X2811018Y6274562D02*
G01*
X2811018Y6145276D01*
X2811018Y6237478D02*
G01*
X2838704Y6265163D01*
X2857245Y6274562D01*
X2884931Y6274562D01*
X2903474Y6265163D01*
X2912618Y6237478D01*
X2912618Y6145276D01*
X3019806Y6274562D02*
G01*
X3001263Y6265163D01*
X2982975Y6246876D01*
X2973577Y6219189D01*
X2973577Y6200647D01*
X2982975Y6172962D01*
X3001263Y6154420D01*
X3019806Y6145276D01*
X3047491Y6145276D01*
X3066034Y6154420D01*
X3084575Y6172962D01*
X3093720Y6200647D01*
X3093720Y6219189D01*
X3084575Y6246876D01*
X3066034Y6265163D01*
X3047491Y6274562D01*
X3019806Y6274562D01*
X4367529Y6750050D02*
G01*
X4358386Y6768592D01*
X4339843Y6787134D01*
X4321556Y6796278D01*
X4284472Y6796278D01*
X4265929Y6787134D01*
X4247641Y6768592D01*
X4238243Y6750050D01*
X4229100Y6722363D01*
X4229100Y6676389D01*
X4238243Y6648450D01*
X4247641Y6630162D01*
X4265929Y6611620D01*
X4284472Y6602476D01*
X4321556Y6602476D01*
X4339843Y6611620D01*
X4358386Y6630162D01*
X4367529Y6648450D01*
X4367529Y6676389D01*
X4321556Y6676389D02*
G01*
X4367529Y6676389D01*
X4428490Y6796278D02*
G01*
X4428490Y6602476D01*
X4428490Y6796278D02*
G01*
X4558029Y6602476D01*
X4558029Y6796278D02*
G01*
X4558029Y6602476D01*
X4618990Y6796278D02*
G01*
X4618990Y6602476D01*
X4618990Y6796278D02*
G01*
X4683506Y6796278D01*
X4711191Y6787134D01*
X4729734Y6768592D01*
X4738877Y6750050D01*
X4748275Y6722363D01*
X4748275Y6676389D01*
X4738877Y6648450D01*
X4729734Y6630162D01*
X4711191Y6611620D01*
X4683506Y6602476D01*
X4618990Y6602476D01*
X4416043Y7037578D02*
G01*
X4323841Y7037578D01*
X4314443Y6954520D01*
X4323841Y6963663D01*
X4351527Y6973062D01*
X4379213Y6973062D01*
X4406900Y6963663D01*
X4425441Y6945376D01*
X4434586Y6917689D01*
X4434586Y6899147D01*
X4425441Y6871462D01*
X4406900Y6852920D01*
X4379213Y6843776D01*
X4351527Y6843776D01*
X4323841Y6852920D01*
X4314443Y6862063D01*
X4305300Y6880605D01*
X4495545Y7037578D02*
G01*
X4569459Y6843776D01*
X4643374Y7037578D02*
G01*
X4569459Y6843776D01*
X4127500Y7291578D02*
G01*
X4127500Y7097776D01*
X4127500Y7291578D02*
G01*
X4210558Y7291578D01*
X4238243Y7282434D01*
X4247641Y7273289D01*
X4256786Y7254747D01*
X4256786Y7227062D01*
X4247641Y7208520D01*
X4238243Y7199376D01*
X4210558Y7189978D01*
X4127500Y7189978D01*
X4317745Y7291578D02*
G01*
X4363974Y7097776D01*
X4410202Y7291578D02*
G01*
X4363974Y7097776D01*
X4410202Y7291578D02*
G01*
X4456429Y7097776D01*
X4502404Y7291578D02*
G01*
X4456429Y7097776D01*
X4563363Y7291578D02*
G01*
X4563363Y7097776D01*
X4563363Y7291578D02*
G01*
X4637277Y7097776D01*
X4711191Y7291578D02*
G01*
X4637277Y7097776D01*
X4711191Y7291578D02*
G01*
X4711191Y7097776D01*
X4240529Y7499350D02*
G01*
X4231386Y7517892D01*
X4212843Y7536434D01*
X4194556Y7545578D01*
X4157472Y7545578D01*
X4138929Y7536434D01*
X4120641Y7517892D01*
X4111243Y7499350D01*
X4102100Y7471663D01*
X4102100Y7425689D01*
X4111243Y7397750D01*
X4120641Y7379462D01*
X4138929Y7360920D01*
X4157472Y7351776D01*
X4194556Y7351776D01*
X4212843Y7360920D01*
X4231386Y7379462D01*
X4240529Y7397750D01*
X4240529Y7425689D01*
X4194556Y7425689D02*
G01*
X4240529Y7425689D01*
X4301490Y7545578D02*
G01*
X4301490Y7351776D01*
X4301490Y7545578D02*
G01*
X4431029Y7351776D01*
X4431029Y7545578D02*
G01*
X4431029Y7351776D01*
X4491990Y7545578D02*
G01*
X4491990Y7351776D01*
X4491990Y7545578D02*
G01*
X4556506Y7545578D01*
X4584191Y7536434D01*
X4602734Y7517892D01*
X4611877Y7499350D01*
X4621275Y7471663D01*
X4621275Y7425689D01*
X4611877Y7397750D01*
X4602734Y7379462D01*
X4584191Y7360920D01*
X4556506Y7351776D01*
X4491990Y7351776D01*
X4184141Y7824978D02*
G01*
X4285741Y7824978D01*
X4230370Y7751063D01*
X4258056Y7751063D01*
X4276343Y7741920D01*
X4285741Y7732776D01*
X4294886Y7705089D01*
X4294886Y7686547D01*
X4285741Y7658862D01*
X4267200Y7640320D01*
X4239513Y7631176D01*
X4211827Y7631176D01*
X4184141Y7640320D01*
X4174743Y7649463D01*
X4165600Y7668005D01*
X4355845Y7824978D02*
G01*
X4429759Y7631176D01*
X4503674Y7824978D02*
G01*
X4429759Y7631176D01*
X4583175Y7824978D02*
G01*
X4684775Y7824978D01*
X4629150Y7751063D01*
X4657090Y7751063D01*
X4675377Y7741920D01*
X4684775Y7732776D01*
X4693920Y7705089D01*
X4693920Y7686547D01*
X4684775Y7658862D01*
X4666234Y7640320D01*
X4638547Y7631176D01*
X4610861Y7631176D01*
X4583175Y7640320D01*
X4573777Y7649463D01*
X4564634Y7668005D01*
X4233672Y8104378D02*
G01*
X4215129Y8095234D01*
X4196841Y8076692D01*
X4187443Y8058150D01*
X4178300Y8030463D01*
X4178300Y7984489D01*
X4187443Y7956550D01*
X4196841Y7938262D01*
X4215129Y7919720D01*
X4233672Y7910576D01*
X4270756Y7910576D01*
X4289043Y7919720D01*
X4307586Y7938262D01*
X4316729Y7956550D01*
X4326127Y7984489D01*
X4326127Y8030463D01*
X4316729Y8058150D01*
X4307586Y8076692D01*
X4289043Y8095234D01*
X4270756Y8104378D01*
X4233672Y8104378D01*
X4387088Y8104378D02*
G01*
X4387088Y7965947D01*
X4396231Y7938262D01*
X4414774Y7919720D01*
X4442459Y7910576D01*
X4461002Y7910576D01*
X4488688Y7919720D01*
X4507229Y7938262D01*
X4516374Y7965947D01*
X4516374Y8104378D01*
X4641850Y8104378D02*
G01*
X4641850Y7910576D01*
X4577334Y8104378D02*
G01*
X4706620Y8104378D01*
X6145529Y6750050D02*
G01*
X6136386Y6768592D01*
X6117843Y6787134D01*
X6099556Y6796278D01*
X6062472Y6796278D01*
X6043929Y6787134D01*
X6025641Y6768592D01*
X6016243Y6750050D01*
X6007100Y6722363D01*
X6007100Y6676389D01*
X6016243Y6648450D01*
X6025641Y6630162D01*
X6043929Y6611620D01*
X6062472Y6602476D01*
X6099556Y6602476D01*
X6117843Y6611620D01*
X6136386Y6630162D01*
X6145529Y6648450D01*
X6145529Y6676389D01*
X6099556Y6676389D02*
G01*
X6145529Y6676389D01*
X6206490Y6796278D02*
G01*
X6206490Y6602476D01*
X6206490Y6796278D02*
G01*
X6336029Y6602476D01*
X6336029Y6796278D02*
G01*
X6336029Y6602476D01*
X6396990Y6796278D02*
G01*
X6396990Y6602476D01*
X6396990Y6796278D02*
G01*
X6461506Y6796278D01*
X6489191Y6787134D01*
X6507734Y6768592D01*
X6516877Y6750050D01*
X6526275Y6722363D01*
X6526275Y6676389D01*
X6516877Y6648450D01*
X6507734Y6630162D01*
X6489191Y6611620D01*
X6461506Y6602476D01*
X6396990Y6602476D01*
X6244843Y7062978D02*
G01*
X6152641Y7062978D01*
X6143243Y6979920D01*
X6152641Y6989063D01*
X6180327Y6998462D01*
X6208013Y6998462D01*
X6235700Y6989063D01*
X6254241Y6970776D01*
X6263386Y6943089D01*
X6263386Y6924547D01*
X6254241Y6896862D01*
X6235700Y6878320D01*
X6208013Y6869176D01*
X6180327Y6869176D01*
X6152641Y6878320D01*
X6143243Y6887463D01*
X6134100Y6906005D01*
X6324345Y7062978D02*
G01*
X6398259Y6869176D01*
X6472174Y7062978D02*
G01*
X6398259Y6869176D01*
X5943600Y7329678D02*
G01*
X5943600Y7135876D01*
X5943600Y7329678D02*
G01*
X6026658Y7329678D01*
X6054343Y7320534D01*
X6063741Y7311389D01*
X6072886Y7292847D01*
X6072886Y7265162D01*
X6063741Y7246620D01*
X6054343Y7237476D01*
X6026658Y7228078D01*
X5943600Y7228078D01*
X6133845Y7329678D02*
G01*
X6180074Y7135876D01*
X6226302Y7329678D02*
G01*
X6180074Y7135876D01*
X6226302Y7329678D02*
G01*
X6272529Y7135876D01*
X6318504Y7329678D02*
G01*
X6272529Y7135876D01*
X6379463Y7329678D02*
G01*
X6379463Y7135876D01*
X6379463Y7329678D02*
G01*
X6453377Y7135876D01*
X6527291Y7329678D02*
G01*
X6453377Y7135876D01*
X6527291Y7329678D02*
G01*
X6527291Y7135876D01*
X6031229Y7537450D02*
G01*
X6022086Y7555992D01*
X6003543Y7574534D01*
X5985256Y7583678D01*
X5948172Y7583678D01*
X5929629Y7574534D01*
X5911341Y7555992D01*
X5901943Y7537450D01*
X5892800Y7509763D01*
X5892800Y7463789D01*
X5901943Y7435850D01*
X5911341Y7417562D01*
X5929629Y7399020D01*
X5948172Y7389876D01*
X5985256Y7389876D01*
X6003543Y7399020D01*
X6022086Y7417562D01*
X6031229Y7435850D01*
X6031229Y7463789D01*
X5985256Y7463789D02*
G01*
X6031229Y7463789D01*
X6092190Y7583678D02*
G01*
X6092190Y7389876D01*
X6092190Y7583678D02*
G01*
X6221729Y7389876D01*
X6221729Y7583678D02*
G01*
X6221729Y7389876D01*
X6282690Y7583678D02*
G01*
X6282690Y7389876D01*
X6282690Y7583678D02*
G01*
X6347206Y7583678D01*
X6374891Y7574534D01*
X6393434Y7555992D01*
X6402577Y7537450D01*
X6411975Y7509763D01*
X6411975Y7463789D01*
X6402577Y7435850D01*
X6393434Y7417562D01*
X6374891Y7399020D01*
X6347206Y7389876D01*
X6282690Y7389876D01*
X6219443Y7850378D02*
G01*
X6127241Y7850378D01*
X6117843Y7767320D01*
X6127241Y7776463D01*
X6154927Y7785862D01*
X6182613Y7785862D01*
X6210300Y7776463D01*
X6228841Y7758176D01*
X6237986Y7730489D01*
X6237986Y7711947D01*
X6228841Y7684262D01*
X6210300Y7665720D01*
X6182613Y7656576D01*
X6154927Y7656576D01*
X6127241Y7665720D01*
X6117843Y7674863D01*
X6108700Y7693405D01*
X6298945Y7850378D02*
G01*
X6372859Y7656576D01*
X6446774Y7850378D02*
G01*
X6372859Y7656576D01*
X5943600Y8091678D02*
G01*
X5943600Y7897876D01*
X5943600Y8091678D02*
G01*
X6026658Y8091678D01*
X6054343Y8082534D01*
X6063741Y8073389D01*
X6072886Y8054847D01*
X6072886Y8027162D01*
X6063741Y8008620D01*
X6054343Y7999476D01*
X6026658Y7990078D01*
X5943600Y7990078D01*
X6133845Y8091678D02*
G01*
X6180074Y7897876D01*
X6226302Y8091678D02*
G01*
X6180074Y7897876D01*
X6226302Y8091678D02*
G01*
X6272529Y7897876D01*
X6318504Y8091678D02*
G01*
X6272529Y7897876D01*
X6379463Y8091678D02*
G01*
X6379463Y7897876D01*
X6379463Y8091678D02*
G01*
X6453377Y7897876D01*
X6527291Y8091678D02*
G01*
X6453377Y7897876D01*
X6527291Y8091678D02*
G01*
X6527291Y7897876D01*
X5233670Y7824978D02*
G01*
X5233670Y7631176D01*
X5168900Y7824978D02*
G01*
X5298186Y7824978D01*
X5488431Y7797292D02*
G01*
X5469890Y7815834D01*
X5442204Y7824978D01*
X5405374Y7824978D01*
X5377688Y7815834D01*
X5359145Y7797292D01*
X5359145Y7778750D01*
X5368290Y7760462D01*
X5377688Y7751063D01*
X5396229Y7741920D01*
X5451602Y7723378D01*
X5469890Y7714234D01*
X5479288Y7705089D01*
X5488431Y7686547D01*
X5488431Y7658862D01*
X5469890Y7640320D01*
X5442204Y7631176D01*
X5405374Y7631176D01*
X5377688Y7640320D01*
X5359145Y7658862D01*
X5168900Y7062978D02*
G01*
X5168900Y6869176D01*
X5168900Y6869176D02*
G01*
X5279643Y6869176D01*
X5340604Y7062978D02*
G01*
X5340604Y6869176D01*
X5340604Y7062978D02*
G01*
X5460745Y7062978D01*
X5340604Y6970776D02*
G01*
X5414518Y6970776D01*
X5340604Y6869176D02*
G01*
X5460745Y6869176D01*
X5521706Y7062978D02*
G01*
X5521706Y6869176D01*
X5521706Y7062978D02*
G01*
X5586475Y7062978D01*
X5614161Y7053834D01*
X5632450Y7035292D01*
X5641847Y7016750D01*
X5650991Y6989063D01*
X5650991Y6943089D01*
X5641847Y6915150D01*
X5632450Y6896862D01*
X5614161Y6878320D01*
X5586475Y6869176D01*
X5521706Y6869176D01*
X6997700Y7062978D02*
G01*
X6997700Y6869176D01*
X6997700Y7062978D02*
G01*
X7080758Y7062978D01*
X7108443Y7053834D01*
X7117841Y7044689D01*
X7126986Y7026147D01*
X7126986Y7007605D01*
X7117841Y6989063D01*
X7108443Y6979920D01*
X7080758Y6970776D01*
X6997700Y6970776D02*
G01*
X7080758Y6970776D01*
X7108443Y6961378D01*
X7117841Y6952234D01*
X7126986Y6933692D01*
X7126986Y6906005D01*
X7117841Y6887463D01*
X7108443Y6878320D01*
X7080758Y6869176D01*
X6997700Y6869176D01*
X7459472Y7035292D02*
G01*
X7440929Y7053834D01*
X7413243Y7062978D01*
X7376413Y7062978D01*
X7348727Y7053834D01*
X7330186Y7035292D01*
X7330186Y7016750D01*
X7339329Y6998462D01*
X7348727Y6989063D01*
X7367270Y6979920D01*
X7422641Y6961378D01*
X7440929Y6952234D01*
X7450327Y6943089D01*
X7459472Y6924547D01*
X7459472Y6896862D01*
X7440929Y6878320D01*
X7413243Y6869176D01*
X7376413Y6869176D01*
X7348727Y6878320D01*
X7330186Y6896862D01*
X7520431Y7062978D02*
G01*
X7520431Y6869176D01*
X7520431Y7062978D02*
G01*
X7603490Y7062978D01*
X7631429Y7053834D01*
X7640574Y7044689D01*
X7649718Y7026147D01*
X7649718Y7007605D01*
X7640574Y6989063D01*
X7631429Y6979920D01*
X7603490Y6970776D01*
X7520431Y6970776D01*
X7585202Y6970776D02*
G01*
X7649718Y6869176D01*
X7710677Y7062978D02*
G01*
X7784591Y6869176D01*
X7858506Y7062978D02*
G01*
X7784591Y6869176D01*
X7049770Y7761478D02*
G01*
X7049770Y7567676D01*
X6985000Y7761478D02*
G01*
X7114286Y7761478D01*
X7446772Y7733792D02*
G01*
X7428229Y7752334D01*
X7400543Y7761478D01*
X7363713Y7761478D01*
X7336027Y7752334D01*
X7317486Y7733792D01*
X7317486Y7715250D01*
X7326629Y7696962D01*
X7336027Y7687563D01*
X7354570Y7678420D01*
X7409941Y7659878D01*
X7428229Y7650734D01*
X7437627Y7641589D01*
X7446772Y7623047D01*
X7446772Y7595362D01*
X7428229Y7576820D01*
X7400543Y7567676D01*
X7363713Y7567676D01*
X7336027Y7576820D01*
X7317486Y7595362D01*
X7507731Y7761478D02*
G01*
X7507731Y7567676D01*
X7507731Y7761478D02*
G01*
X7590790Y7761478D01*
X7618729Y7752334D01*
X7627874Y7743189D01*
X7637018Y7724647D01*
X7637018Y7706105D01*
X7627874Y7687563D01*
X7618729Y7678420D01*
X7590790Y7669276D01*
X7507731Y7669276D01*
X7572502Y7669276D02*
G01*
X7637018Y7567676D01*
X7697977Y7761478D02*
G01*
X7771891Y7567676D01*
X7845806Y7761478D02*
G01*
X7771891Y7567676D01*
X908557Y7860792D02*
G01*
X908557Y7694676D01*
X825500Y7777734D02*
G01*
X991870Y7777734D01*
X908557Y6705092D02*
G01*
X908557Y6538976D01*
X825500Y6622034D02*
G01*
X991870Y6622034D01*
X4782058Y6222492D02*
G01*
X4782058Y6056376D01*
X4699000Y6139434D02*
G01*
X4865370Y6139434D01*
X6572758Y6235192D02*
G01*
X6572758Y6069076D01*
X6489700Y6152134D02*
G01*
X6656070Y6152134D01*
X4102100Y9374378D02*
G01*
X4102100Y9180576D01*
X4102100Y9374378D02*
G01*
X4185158Y9374378D01*
X4212843Y9365234D01*
X4222241Y9356089D01*
X4231386Y9337547D01*
X4231386Y9319005D01*
X4222241Y9300463D01*
X4212843Y9291320D01*
X4185158Y9282176D01*
X4102100Y9282176D01*
X4166870Y9282176D02*
G01*
X4231386Y9180576D01*
X4292345Y9374378D02*
G01*
X4292345Y9180576D01*
X4292345Y9374378D02*
G01*
X4375404Y9374378D01*
X4403090Y9365234D01*
X4412488Y9356089D01*
X4421631Y9337547D01*
X4421631Y9309862D01*
X4412488Y9291320D01*
X4403090Y9282176D01*
X4375404Y9272778D01*
X4292345Y9272778D01*
X4482591Y9374378D02*
G01*
X4491990Y9365234D01*
X4501134Y9374378D01*
X4491990Y9383776D01*
X4482591Y9374378D01*
X4491990Y9309862D02*
G01*
X4491990Y9180576D01*
X4833620Y9374378D02*
G01*
X4704334Y9180576D01*
X4704334Y9374378D02*
G01*
X4833620Y9374378D01*
X4704334Y9180576D02*
G01*
X4833620Y9180576D01*
X4894579Y9374378D02*
G01*
X4894579Y9180576D01*
X4894579Y9374378D02*
G01*
X5014722Y9374378D01*
X4894579Y9282176D02*
G01*
X4968493Y9282176D01*
X4894579Y9180576D02*
G01*
X5014722Y9180576D01*
X5075681Y9374378D02*
G01*
X5075681Y9180576D01*
X5075681Y9374378D02*
G01*
X5158740Y9374378D01*
X5186425Y9365234D01*
X5195570Y9356089D01*
X5204968Y9337547D01*
X5204968Y9319005D01*
X5195570Y9300463D01*
X5186425Y9291320D01*
X5158740Y9282176D01*
X5075681Y9282176D01*
X5140197Y9282176D02*
G01*
X5204968Y9180576D01*
X5321300Y9374378D02*
G01*
X5302758Y9365234D01*
X5284470Y9346692D01*
X5275072Y9328150D01*
X5265927Y9300463D01*
X5265927Y9254489D01*
X5275072Y9226550D01*
X5284470Y9208262D01*
X5302758Y9189720D01*
X5321300Y9180576D01*
X5358129Y9180576D01*
X5376672Y9189720D01*
X5395213Y9208262D01*
X5404358Y9226550D01*
X5413756Y9254489D01*
X5413756Y9300463D01*
X5404358Y9328150D01*
X5395213Y9346692D01*
X5376672Y9365234D01*
X5358129Y9374378D01*
X5321300Y9374378D01*
X5626100Y9328150D02*
G01*
X5626100Y9337547D01*
X5635243Y9356089D01*
X5644641Y9365234D01*
X5662929Y9374378D01*
X5700013Y9374378D01*
X5718556Y9365234D01*
X5727700Y9356089D01*
X5736843Y9337547D01*
X5736843Y9319005D01*
X5727700Y9300463D01*
X5709158Y9272778D01*
X5616956Y9180576D01*
X5746241Y9180576D01*
D11*
X4965702Y6718300D02*
G01*
X1808457Y6718300D01*
X1676400Y6692900D01*
X5588002Y6718297D02*
G01*
X4965702Y6718297D01*
X1930402Y8991600D02*
G01*
X1803402Y8864600D01*
X1803402Y8709660D01*
X1752600Y8610600D01*
X1517017Y8602979D01*
X1130300Y8470900D01*
X5842000Y6718300D02*
G01*
X5842000Y6718300D01*
X5842000Y6972300D01*
X4965702Y6972300D01*
X7251702Y6705600D02*
G01*
X6892013Y6705600D01*
X6743700Y6731000D01*
X7505700Y6705600D02*
G01*
X7505700Y6705600D01*
X7235217Y6984997D01*
X6832602Y6984997D01*
X6743700Y6731000D02*
G01*
X6214391Y6324600D01*
X5715002Y6324600D01*
X4953002Y6324597D02*
G01*
X4846347Y6324597D01*
X4846347Y6324600D02*
G01*
X4688715Y6482079D01*
X1219200Y6502400D01*
X1135357Y6400800D01*
X1028700Y6375400D01*
X1028702Y6375400D02*
G01*
X1028700Y6375400D01*
D10*
X2946400Y8737600D02*
G01*
X2946908Y8599424D01*
X2314702Y7962900D01*
X1676400Y7962900D01*
X3200400Y8737600D02*
G01*
X3090163Y8492236D01*
X2306574Y7708900D01*
X1676400Y7708900D01*
D11*
X1676402Y6946897D02*
G01*
X4178302Y6946897D01*
X4965702Y7734297D01*
X1422402Y8991597D02*
G01*
X1676402Y8991597D01*
X6743702Y7492997D02*
G01*
X4978402Y7492997D01*
X4965702Y7480297D01*
X6743702Y6984997D02*
G01*
X6477002Y6718297D01*
X5842002Y6718297D01*
D10*
X5994402Y8737597D02*
G01*
X5245102Y7988297D01*
X4965702Y7988297D01*
X3708402Y8737597D02*
G01*
X2425702Y7454897D01*
X1676402Y7454897D01*
X4216402Y8991597D02*
G01*
X4070504Y8845699D01*
X2886687Y8845699D01*
X2819402Y8778415D01*
X2819402Y8696855D01*
X2339444Y8216897D01*
X1676402Y8216897D01*
X3314702Y9385297D02*
G01*
X3175002Y9524997D01*
X1930402Y9524997D01*
X6798058Y6730997D02*
G01*
X6743702Y6730997D01*
D13*
G01*
X1028700Y6375400D03*
D14*
G01*
X1282700Y6375400D03*
D13*
G01*
X1676400Y6692900D03*
D14*
G01*
X1676400Y6946900D03*
G01*
X1676400Y7200900D03*
G01*
X1676400Y7454900D03*
G01*
X1676400Y7708900D03*
G01*
X1676400Y7962900D03*
G01*
X1676400Y8216900D03*
G01*
X1676400Y8470900D03*
G36*
X4874259Y6403339D02*
G01*
X5031740Y6403339D01*
X5031740Y6245860D01*
X4874259Y6245860D01*
G37*
G01*
X5207000Y6324600D03*
G01*
X5461000Y6324600D03*
G01*
X5715000Y6324600D03*
G36*
X6677659Y6403339D02*
G01*
X6835140Y6403339D01*
X6835140Y6245860D01*
X6677659Y6245860D01*
G37*
G01*
X7010400Y6324600D03*
G01*
X7264400Y6324600D03*
G01*
X7518400Y6324600D03*
D13*
G01*
X1130300Y7962900D03*
D14*
G01*
X1130300Y8216900D03*
G01*
X1130300Y8470900D03*
D15*
G01*
X6248400Y8991600D03*
G01*
X6248400Y8737600D03*
G01*
X5994400Y8991600D03*
G01*
X5994400Y8737600D03*
G01*
X5740400Y8991600D03*
G01*
X5740400Y8737600D03*
G01*
X5486400Y8991600D03*
G01*
X5486400Y8737600D03*
G01*
X5232400Y8991600D03*
G01*
X5232400Y8737600D03*
G01*
X4978400Y8991600D03*
G01*
X4978400Y8737600D03*
G01*
X4724400Y8991600D03*
G01*
X4724400Y8737600D03*
G01*
X4470400Y8991600D03*
G01*
X4470400Y8737600D03*
G01*
X4216400Y8991600D03*
G01*
X4216400Y8737600D03*
G01*
X3962400Y8991600D03*
G01*
X3962400Y8737600D03*
G01*
X3708400Y8991600D03*
G01*
X3708400Y8737600D03*
G01*
X3454400Y8991600D03*
G01*
X3454400Y8737600D03*
G01*
X3200400Y8991600D03*
G01*
X3200400Y8737600D03*
G01*
X2946400Y8991600D03*
G01*
X2946400Y8737600D03*
G01*
X2692400Y8991600D03*
G01*
X2692400Y8737600D03*
G01*
X2438400Y8991600D03*
G01*
X2438400Y8737600D03*
G01*
X2184400Y8991600D03*
G01*
X2184400Y8737600D03*
G01*
X1930400Y8991600D03*
G01*
X1930400Y8737600D03*
G01*
X1676400Y8991600D03*
G01*
X1676400Y8737600D03*
G01*
X1422400Y8991600D03*
G36*
X1342400Y8817599D02*
G01*
X1502399Y8817599D01*
X1502399Y8657600D01*
X1342400Y8657600D01*
G37*
G36*
X5763259Y6797039D02*
G01*
X5763259Y6639560D01*
X5920740Y6639560D01*
X5920740Y6797039D01*
G37*
D14*
G01*
X5588000Y6718300D03*
G36*
X7426959Y6784339D02*
G01*
X7426959Y6626860D01*
X7584440Y6626860D01*
X7584440Y6784339D01*
G37*
G01*
X7251700Y6705600D03*
D17*
G01*
X1930400Y9525000D03*
G01*
X1930400Y9271000D03*
D18*
G01*
X3314700Y9385300D03*
G01*
X2552700Y9385300D03*
D19*
G01*
X4965700Y6718300D03*
D20*
G01*
X4965700Y6972300D03*
G01*
X4965700Y7226300D03*
G01*
X4965700Y7480300D03*
G01*
X4965700Y7734300D03*
G01*
X4965700Y7988300D03*
D19*
G01*
X6743700Y6731000D03*
D20*
G01*
X6743700Y6985000D03*
G01*
X6743700Y7239000D03*
G01*
X6743700Y7493000D03*
G01*
X6743700Y7747000D03*
G01*
X6743700Y8001000D03*
M02*
