G04 Layer: TopLayer*
G04 EasyEDA v6.5.5, 2022-08-23 09:37:03*
G04 dbdef394597f406e9c5f1e3ded40daaf,59b13081229d43bfb627b6405b151bcb,10*
G04 Gerber Generator version 0.2*
G04 Scale: 100 percent, Rotated: No, Reflected: No *
G04 Dimensions in millimeters *
G04 leading zeros omitted , absolute positions ,4 integer and 5 decimal *
%FSLAX45Y45*%
%MOMM*%

%ADD10C,0.2540*%
%ADD11C,0.5000*%
%ADD12C,1.0000*%
%ADD13R,1.5748X1.5748*%
%ADD14C,1.5748*%
%ADD15C,1.6510*%
%ADD16C,1.8796*%
%ADD17C,1.6000*%
%ADD19R,1.9000X1.9000*%
%ADD20C,1.9000*%
%ADD21C,1.5240*%

%LPD*%
D11*
X1930402Y8991600D02*
G01*
X1803402Y8864600D01*
X1803402Y8709660D01*
X1803400Y8610600D01*
X1549400Y8610600D01*
X1130300Y8470900D01*
X1930400Y9271000D02*
G01*
X1930400Y9091676D01*
X1930400Y8991600D01*
D12*
X4953000Y6324600D02*
G01*
X4953000Y6121400D01*
X5869940Y6121400D01*
X5971540Y6223000D01*
X6076950Y6324600D01*
X4946650Y6324600D02*
G01*
X3879341Y6540500D01*
X1022350Y6540500D01*
X1022350Y6375400D01*
X6756400Y6324600D02*
G01*
X6756400Y6223000D01*
X6680200Y6134100D01*
X6464300Y6134100D01*
X6337300Y6324600D01*
X6743702Y7492997D02*
G01*
X4978402Y7492997D01*
X4965702Y7480297D01*
X5842000Y6718300D02*
G01*
X5842000Y6718300D01*
X5842000Y6972300D01*
X4965702Y6972300D01*
X7251702Y6705600D02*
G01*
X6892013Y6705600D01*
X6743700Y6731000D01*
X4965700Y6718300D02*
G01*
X1689100Y6718300D01*
X1676400Y6705600D01*
X5588002Y6718297D02*
G01*
X4965702Y6718297D01*
X7505700Y6705600D02*
G01*
X7505700Y6705600D01*
X7235217Y6984997D01*
X6832602Y6984997D01*
D11*
X1028702Y6375400D02*
G01*
X1028700Y6375400D01*
D10*
X2946400Y8737600D02*
G01*
X2946908Y8599426D01*
X2323084Y7975600D01*
X1676400Y7975600D01*
X3200400Y8737600D02*
G01*
X3090169Y8492238D01*
X2319530Y7721600D01*
X1676400Y7721600D01*
D11*
X1676400Y6959600D02*
G01*
X4191000Y6959600D01*
X4965700Y7734300D01*
D10*
X5994402Y8737597D02*
G01*
X5245102Y7988297D01*
X4965702Y7988297D01*
X3708400Y8737600D02*
G01*
X2438400Y7467600D01*
X1676400Y7467600D01*
X4216400Y8991600D02*
G01*
X4070499Y8845699D01*
X2886682Y8845699D01*
X2819400Y8778415D01*
X2819400Y8696858D01*
X2352141Y8229600D01*
X1676400Y8229600D01*
X3314702Y9385297D02*
G01*
X3175002Y9524997D01*
X1930402Y9524997D01*
X6798058Y6730997D02*
G01*
X6743702Y6730997D01*
D12*
X6743700Y6985000D02*
G01*
X6642100Y6985000D01*
X6375400Y6718300D01*
X5842000Y6718300D01*
X7518402Y6324597D02*
G01*
X7251702Y6591297D01*
X7251702Y6705597D01*
D11*
X4470400Y8737600D02*
G01*
X4343400Y8877300D01*
X4343400Y9182100D01*
X2214879Y9182100D01*
X2032000Y9182100D01*
X1930400Y9271000D01*
G36*
X5763259Y6797039D02*
G01*
X5763259Y6639560D01*
X5920740Y6639560D01*
X5920740Y6797039D01*
G37*
D14*
G01*
X5588000Y6718300D03*
G36*
X7426959Y6784339D02*
G01*
X7426959Y6626860D01*
X7584440Y6626860D01*
X7584440Y6784339D01*
G37*
G01*
X7251700Y6705600D03*
D15*
G01*
X1930400Y9525000D03*
G01*
X1930400Y9271000D03*
D16*
G01*
X3314700Y9385300D03*
G01*
X2552700Y9385300D03*
D13*
G01*
X1028700Y6375400D03*
D14*
G01*
X1282700Y6375400D03*
D13*
G01*
X1676400Y6705600D03*
D14*
G01*
X1676400Y6959600D03*
G01*
X1676400Y7213600D03*
G01*
X1676400Y7467600D03*
G01*
X1676400Y7721600D03*
G01*
X1676400Y7975600D03*
G01*
X1676400Y8229600D03*
G01*
X1676400Y8483600D03*
G36*
X4874259Y6403339D02*
G01*
X5031740Y6403339D01*
X5031740Y6245860D01*
X4874259Y6245860D01*
G37*
G01*
X5207000Y6324600D03*
G01*
X5461000Y6324600D03*
G01*
X5715000Y6324600D03*
G36*
X6677659Y6403339D02*
G01*
X6835140Y6403339D01*
X6835140Y6245860D01*
X6677659Y6245860D01*
G37*
G01*
X7010400Y6324600D03*
G01*
X7264400Y6324600D03*
G01*
X7518400Y6324600D03*
D13*
G01*
X1130300Y7962900D03*
D14*
G01*
X1130300Y8216900D03*
G01*
X1130300Y8470900D03*
D17*
G01*
X6248400Y8991600D03*
G01*
X6248400Y8737600D03*
G01*
X5994400Y8991600D03*
G01*
X5994400Y8737600D03*
G01*
X5740400Y8991600D03*
G01*
X5740400Y8737600D03*
G01*
X5486400Y8991600D03*
G01*
X5486400Y8737600D03*
G01*
X5232400Y8991600D03*
G01*
X5232400Y8737600D03*
G01*
X4978400Y8991600D03*
G01*
X4978400Y8737600D03*
G01*
X4724400Y8991600D03*
G01*
X4724400Y8737600D03*
G01*
X4470400Y8991600D03*
G01*
X4470400Y8737600D03*
G01*
X4216400Y8991600D03*
G01*
X4216400Y8737600D03*
G01*
X3962400Y8991600D03*
G01*
X3962400Y8737600D03*
G01*
X3708400Y8991600D03*
G01*
X3708400Y8737600D03*
G01*
X3454400Y8991600D03*
G01*
X3454400Y8737600D03*
G01*
X3200400Y8991600D03*
G01*
X3200400Y8737600D03*
G01*
X2946400Y8991600D03*
G01*
X2946400Y8737600D03*
G01*
X2692400Y8991600D03*
G01*
X2692400Y8737600D03*
G01*
X2438400Y8991600D03*
G01*
X2438400Y8737600D03*
G01*
X2184400Y8991600D03*
G01*
X2184400Y8737600D03*
G01*
X1930400Y8991600D03*
G01*
X1930400Y8737600D03*
G01*
X1676400Y8991600D03*
G01*
X1676400Y8737600D03*
G01*
X1422400Y8991600D03*
G36*
X1342400Y8817599D02*
G01*
X1502399Y8817599D01*
X1502399Y8657600D01*
X1342400Y8657600D01*
G37*
D19*
G01*
X4965700Y6718300D03*
D20*
G01*
X4965700Y6972300D03*
G01*
X4965700Y7226300D03*
G01*
X4965700Y7480300D03*
G01*
X4965700Y7734300D03*
G01*
X4965700Y7988300D03*
D19*
G01*
X6743700Y6731000D03*
D20*
G01*
X6743700Y6985000D03*
G01*
X6743700Y7239000D03*
G01*
X6743700Y7493000D03*
G01*
X6743700Y7747000D03*
G01*
X6743700Y8001000D03*
D21*
G01*
X6083300Y6324600D03*
G01*
X6337300Y6324600D03*
M02*
