G04 Layer: TopSilkscreenLayer*
G04 EasyEDA v6.5.5, 2022-08-23 09:37:03*
G04 dbdef394597f406e9c5f1e3ded40daaf,59b13081229d43bfb627b6405b151bcb,10*
G04 Gerber Generator version 0.2*
G04 Scale: 100 percent, Rotated: No, Reflected: No *
G04 Dimensions in millimeters *
G04 leading zeros omitted , absolute positions ,4 integer and 5 decimal *
%FSLAX45Y45*%
%MOMM*%

%ADD10C,0.2540*%
%ADD11C,0.5000*%
%ADD22C,0.2032*%
%ADD23C,0.2030*%
%ADD24C,0.1524*%

%LPD*%
G36*
X2409952Y6623405D02*
G01*
X2409240Y6623253D01*
X2405989Y6621068D01*
X2400604Y6616547D01*
X2384044Y6601206D01*
X2361285Y6578853D01*
X2333904Y6551168D01*
X2300579Y6516471D01*
X2265680Y6479540D01*
X2252827Y6465417D01*
X2242616Y6453682D01*
X2234793Y6443878D01*
X2229154Y6435699D01*
X2227021Y6432092D01*
X2224024Y6425590D01*
X2223109Y6422542D01*
X2222500Y6419646D01*
X2222144Y6413957D01*
X2222703Y6408064D01*
X2225395Y6394958D01*
X2229053Y6381750D01*
X2233472Y6368796D01*
X2238451Y6356400D01*
X2243937Y6344818D01*
X2249779Y6334302D01*
X2255774Y6325057D01*
X2261819Y6317437D01*
X2264867Y6314236D01*
X2267813Y6311595D01*
X2270709Y6309410D01*
X2273554Y6307785D01*
X2276297Y6306769D01*
X2284171Y6305854D01*
X2293620Y6306769D01*
X2303373Y6309156D01*
X2312314Y6312966D01*
X2320544Y6317081D01*
X2323744Y6318097D01*
X2326436Y6318250D01*
X2328722Y6317488D01*
X2330754Y6315557D01*
X2332532Y6312408D01*
X2334260Y6307886D01*
X2335936Y6301841D01*
X2339695Y6284823D01*
X2351938Y6223457D01*
X2421585Y6223558D01*
X2429256Y6223863D01*
X2435402Y6224371D01*
X2440228Y6225286D01*
X2443835Y6226606D01*
X2446426Y6228486D01*
X2448153Y6230924D01*
X2449271Y6234074D01*
X2449830Y6238036D01*
X2450033Y6248603D01*
X2449931Y6256578D01*
X2449322Y6262624D01*
X2447848Y6266992D01*
X2445258Y6269939D01*
X2441092Y6271666D01*
X2435047Y6272479D01*
X2426817Y6272530D01*
X2401976Y6271717D01*
X2396540Y6271920D01*
X2391968Y6272580D01*
X2388158Y6273800D01*
X2384907Y6275730D01*
X2382062Y6278372D01*
X2379472Y6281928D01*
X2377033Y6286449D01*
X2374544Y6292088D01*
X2368956Y6307175D01*
X2365502Y6317335D01*
X2362911Y6326022D01*
X2361285Y6333439D01*
X2360472Y6339840D01*
X2360574Y6345478D01*
X2361539Y6350660D01*
X2363317Y6355588D01*
X2369972Y6368135D01*
X2372918Y6375704D01*
X2374849Y6382867D01*
X2375611Y6389370D01*
X2375357Y6394958D01*
X2373934Y6399276D01*
X2371394Y6402120D01*
X2367737Y6403136D01*
X2365044Y6403289D01*
X2362860Y6403898D01*
X2361184Y6404813D01*
X2360066Y6406184D01*
X2359406Y6407861D01*
X2359304Y6409944D01*
X2359710Y6412382D01*
X2360625Y6415176D01*
X2362047Y6418326D01*
X2363978Y6421882D01*
X2369413Y6429959D01*
X2376830Y6439458D01*
X2386228Y6450330D01*
X2397607Y6462471D01*
X2451303Y6516319D01*
X2463952Y6530340D01*
X2469794Y6538010D01*
X2471978Y6541465D01*
X2473655Y6544665D01*
X2474874Y6547713D01*
X2475636Y6550558D01*
X2475992Y6553301D01*
X2475890Y6555994D01*
X2475331Y6558584D01*
X2474417Y6561175D01*
X2473096Y6563766D01*
X2471369Y6566408D01*
X2466797Y6571945D01*
X2460802Y6578092D01*
X2442362Y6595516D01*
X2429357Y6607352D01*
X2418740Y6616700D01*
X2411679Y6622338D01*
G37*
G36*
X2593187Y6537706D02*
G01*
X2588717Y6536944D01*
X2584907Y6534607D01*
X2581452Y6530441D01*
X2577998Y6524193D01*
X2574340Y6515557D01*
X2567686Y6497624D01*
X2557576Y6468821D01*
X2547264Y6438188D01*
X2537104Y6407048D01*
X2527554Y6376873D01*
X2519121Y6349136D01*
X2512161Y6325158D01*
X2507183Y6306464D01*
X2505557Y6299555D01*
X2504592Y6294475D01*
X2504338Y6291376D01*
X2504440Y6290665D01*
X2505456Y6289751D01*
X2510790Y6286957D01*
X2519984Y6282994D01*
X2532329Y6278168D01*
X2563622Y6266789D01*
X2599080Y6254699D01*
X2633167Y6243726D01*
X2660142Y6235852D01*
X2669286Y6233617D01*
X2674518Y6232855D01*
X2675483Y6233109D01*
X2676956Y6236716D01*
X2683967Y6257950D01*
X2694686Y6292748D01*
X2704744Y6326276D01*
X2713228Y6353200D01*
X2724048Y6386068D01*
X2732125Y6409334D01*
X2738932Y6427774D01*
X2743454Y6439255D01*
X2748127Y6452768D01*
X2749651Y6458458D01*
X2750667Y6463588D01*
X2751074Y6468059D01*
X2750921Y6472021D01*
X2750210Y6475476D01*
X2748889Y6478473D01*
X2746959Y6481064D01*
X2744368Y6483248D01*
X2741168Y6485128D01*
X2737307Y6486702D01*
X2732786Y6488023D01*
X2727553Y6489141D01*
X2721660Y6490055D01*
X2715615Y6490665D01*
X2710637Y6490411D01*
X2706522Y6489090D01*
X2703169Y6486499D01*
X2700223Y6482334D01*
X2697581Y6476492D01*
X2694990Y6468719D01*
X2688894Y6445758D01*
X2684526Y6430365D01*
X2679700Y6415176D01*
X2673553Y6398056D01*
X2665323Y6376771D01*
X2635097Y6302806D01*
X2633268Y6301689D01*
X2629509Y6301689D01*
X2624277Y6302705D01*
X2617825Y6304534D01*
X2610713Y6307023D01*
X2603195Y6310020D01*
X2595778Y6313322D01*
X2588818Y6316776D01*
X2582722Y6320231D01*
X2577896Y6323482D01*
X2574696Y6326378D01*
X2573528Y6328765D01*
X2573883Y6331813D01*
X2576474Y6342634D01*
X2581198Y6358128D01*
X2587396Y6376466D01*
X2599385Y6409994D01*
X2609951Y6441694D01*
X2618994Y6471361D01*
X2625902Y6496659D01*
X2628341Y6507022D01*
X2630017Y6515506D01*
X2630881Y6521754D01*
X2630982Y6523990D01*
X2630830Y6525615D01*
X2630424Y6526479D01*
X2627376Y6528307D01*
X2621635Y6530695D01*
X2613964Y6533235D01*
X2605278Y6535724D01*
X2598623Y6537248D01*
G37*
G36*
X2828696Y6506413D02*
G01*
X2828696Y6415938D01*
X2886303Y6415938D01*
X2886506Y6421780D01*
X2887167Y6426504D01*
X2888437Y6430213D01*
X2890418Y6433058D01*
X2893110Y6435090D01*
X2896717Y6436410D01*
X2901238Y6437122D01*
X2906877Y6437325D01*
X2912465Y6437122D01*
X2917037Y6436410D01*
X2920593Y6435090D01*
X2923336Y6433058D01*
X2925267Y6430213D01*
X2926537Y6426504D01*
X2927248Y6421780D01*
X2927451Y6415938D01*
X2927248Y6410096D01*
X2926537Y6405372D01*
X2925267Y6401663D01*
X2923336Y6398818D01*
X2920593Y6396837D01*
X2917037Y6395516D01*
X2912465Y6394754D01*
X2906877Y6394551D01*
X2901238Y6394754D01*
X2896717Y6395516D01*
X2893110Y6396837D01*
X2890418Y6398818D01*
X2888437Y6401663D01*
X2887167Y6405372D01*
X2886506Y6410096D01*
X2886303Y6415938D01*
X2828696Y6415938D01*
X2828696Y6343243D01*
X2952140Y6343243D01*
X2952140Y6301181D01*
X2951988Y6294628D01*
X2951632Y6289294D01*
X2950921Y6284976D01*
X2949752Y6281623D01*
X2948076Y6279083D01*
X2945739Y6277305D01*
X2942590Y6276086D01*
X2938576Y6275324D01*
X2933547Y6274917D01*
X2920085Y6274765D01*
X2906776Y6274968D01*
X2901746Y6275425D01*
X2897682Y6276187D01*
X2894431Y6277457D01*
X2891840Y6279337D01*
X2889910Y6281877D01*
X2888386Y6285230D01*
X2887268Y6289497D01*
X2886354Y6294831D01*
X2881731Y6343243D01*
X2828696Y6343243D01*
X2828696Y6223457D01*
X3009747Y6223457D01*
X3009696Y6314897D01*
X3009239Y6338519D01*
X3008172Y6355638D01*
X3007360Y6362090D01*
X3006344Y6367221D01*
X3005124Y6371183D01*
X3003702Y6374079D01*
X3001975Y6376009D01*
X3000044Y6377127D01*
X2995574Y6377736D01*
X2993644Y6378752D01*
X2991916Y6380480D01*
X2990392Y6382969D01*
X2989021Y6386372D01*
X2987802Y6390640D01*
X2986786Y6395974D01*
X2985871Y6402324D01*
X2984449Y6418427D01*
X2983382Y6439458D01*
X2980944Y6501536D01*
G37*
G36*
X3441598Y6505803D02*
G01*
X3418484Y6505651D01*
X3399383Y6505194D01*
X3384042Y6504431D01*
X3372002Y6503263D01*
X3363010Y6501638D01*
X3359556Y6500622D01*
X3356660Y6499504D01*
X3354374Y6498234D01*
X3352596Y6496812D01*
X3351276Y6495288D01*
X3350412Y6493560D01*
X3348888Y6487261D01*
X3348024Y6479133D01*
X3347923Y6470192D01*
X3348634Y6461506D01*
X3349650Y6456172D01*
X3351174Y6451752D01*
X3353409Y6448094D01*
X3356356Y6445199D01*
X3360165Y6442913D01*
X3364992Y6441186D01*
X3370935Y6439865D01*
X3378098Y6438950D01*
X3404819Y6436258D01*
X3404819Y6223457D01*
X3462477Y6223457D01*
X3462477Y6442049D01*
X3528314Y6435547D01*
X3528314Y6505803D01*
G37*
G36*
X3148025Y6504381D02*
G01*
X3119170Y6503873D01*
X3107690Y6503263D01*
X3098647Y6502501D01*
X3092500Y6501485D01*
X3090621Y6500926D01*
X3089605Y6500368D01*
X3088792Y6498285D01*
X3088081Y6493916D01*
X3086709Y6478778D01*
X3085541Y6456324D01*
X3084879Y6437325D01*
X3215538Y6437325D01*
X3215538Y6274765D01*
X3141472Y6274765D01*
X3141472Y6437325D01*
X3084879Y6437325D01*
X3084271Y6411976D01*
X3083864Y6377279D01*
X3083814Y6223457D01*
X3273552Y6223457D01*
X3269030Y6501536D01*
X3173323Y6504127D01*
G37*
G36*
X3569462Y6403136D02*
G01*
X3569462Y6223457D01*
X3627069Y6223457D01*
X3627069Y6403136D01*
G37*
G36*
X3676446Y6403136D02*
G01*
X3676446Y6223457D01*
X3711244Y6223457D01*
X3716629Y6223660D01*
X3721100Y6224168D01*
X3724706Y6225032D01*
X3727602Y6226556D01*
X3729837Y6228689D01*
X3731514Y6231737D01*
X3732784Y6235700D01*
X3733749Y6240780D01*
X3735070Y6254851D01*
X3738168Y6304737D01*
X3766210Y6256223D01*
X3774389Y6243574D01*
X3778097Y6238595D01*
X3781653Y6234531D01*
X3785108Y6231178D01*
X3788613Y6228537D01*
X3792169Y6226505D01*
X3795928Y6225082D01*
X3799890Y6224117D01*
X3804208Y6223609D01*
X3808933Y6223457D01*
X3832860Y6223457D01*
X3832860Y6403136D01*
X3792067Y6402933D01*
X3787546Y6402476D01*
X3783939Y6401663D01*
X3781094Y6400342D01*
X3778961Y6398361D01*
X3777437Y6395669D01*
X3776370Y6392113D01*
X3775659Y6387541D01*
X3775303Y6381902D01*
X3774948Y6330391D01*
X3747973Y6373774D01*
X3739946Y6385204D01*
X3736289Y6389624D01*
X3732733Y6393281D01*
X3729177Y6396278D01*
X3725519Y6398615D01*
X3721760Y6400342D01*
X3717696Y6401612D01*
X3713327Y6402476D01*
X3708501Y6402882D01*
G37*
G36*
X3890467Y6403136D02*
G01*
X3890467Y6313271D01*
X3939844Y6313271D01*
X3939946Y6325057D01*
X3940403Y6334201D01*
X3941368Y6341008D01*
X3943045Y6345783D01*
X3945585Y6348933D01*
X3949242Y6350711D01*
X3954119Y6351574D01*
X3960418Y6351778D01*
X3966718Y6351574D01*
X3971594Y6350711D01*
X3975252Y6348933D01*
X3977792Y6345783D01*
X3979468Y6341008D01*
X3980434Y6334201D01*
X3980891Y6325057D01*
X3980891Y6301486D01*
X3980434Y6292342D01*
X3979468Y6285534D01*
X3977792Y6280759D01*
X3975252Y6277610D01*
X3971594Y6275832D01*
X3966718Y6274968D01*
X3960418Y6274765D01*
X3954119Y6274968D01*
X3949242Y6275832D01*
X3945585Y6277610D01*
X3943045Y6280759D01*
X3941368Y6285534D01*
X3940403Y6292342D01*
X3939946Y6301486D01*
X3939844Y6313271D01*
X3890467Y6313271D01*
X3890467Y6223457D01*
X4022140Y6223457D01*
X4022140Y6403136D01*
G37*
D22*
X5892800Y8091678D02*
G01*
X5892800Y7897876D01*
X5892800Y8091678D02*
G01*
X5975858Y8091678D01*
X6003543Y8082534D01*
X6012941Y8073389D01*
X6022086Y8054847D01*
X6022086Y8027162D01*
X6012941Y8008620D01*
X6003543Y7999476D01*
X5975858Y7990078D01*
X5892800Y7990078D01*
X6083045Y8091678D02*
G01*
X6129274Y7897876D01*
X6175502Y8091678D02*
G01*
X6129274Y7897876D01*
X6175502Y8091678D02*
G01*
X6221729Y7897876D01*
X6267704Y8091678D02*
G01*
X6221729Y7897876D01*
X6328663Y8091678D02*
G01*
X6328663Y7897876D01*
X6328663Y8091678D02*
G01*
X6402577Y7897876D01*
X6476491Y8091678D02*
G01*
X6402577Y7897876D01*
X6476491Y8091678D02*
G01*
X6476491Y7897876D01*
X6143243Y7850378D02*
G01*
X6051041Y7850378D01*
X6041643Y7767320D01*
X6051041Y7776463D01*
X6078727Y7785862D01*
X6106413Y7785862D01*
X6134100Y7776463D01*
X6152641Y7758176D01*
X6161786Y7730489D01*
X6161786Y7711947D01*
X6152641Y7684262D01*
X6134100Y7665720D01*
X6106413Y7656576D01*
X6078727Y7656576D01*
X6051041Y7665720D01*
X6041643Y7674863D01*
X6032500Y7693405D01*
X6222745Y7850378D02*
G01*
X6296659Y7656576D01*
X6370574Y7850378D02*
G01*
X6296659Y7656576D01*
X6031229Y7537450D02*
G01*
X6022086Y7555992D01*
X6003543Y7574534D01*
X5985256Y7583678D01*
X5948172Y7583678D01*
X5929629Y7574534D01*
X5911341Y7555992D01*
X5901943Y7537450D01*
X5892800Y7509763D01*
X5892800Y7463789D01*
X5901943Y7435850D01*
X5911341Y7417562D01*
X5929629Y7399020D01*
X5948172Y7389876D01*
X5985256Y7389876D01*
X6003543Y7399020D01*
X6022086Y7417562D01*
X6031229Y7435850D01*
X6031229Y7463789D01*
X5985256Y7463789D02*
G01*
X6031229Y7463789D01*
X6092190Y7583678D02*
G01*
X6092190Y7389876D01*
X6092190Y7583678D02*
G01*
X6221729Y7389876D01*
X6221729Y7583678D02*
G01*
X6221729Y7389876D01*
X6282690Y7583678D02*
G01*
X6282690Y7389876D01*
X6282690Y7583678D02*
G01*
X6347206Y7583678D01*
X6374891Y7574534D01*
X6393434Y7555992D01*
X6402577Y7537450D01*
X6411975Y7509763D01*
X6411975Y7463789D01*
X6402577Y7435850D01*
X6393434Y7417562D01*
X6374891Y7399020D01*
X6347206Y7389876D01*
X6282690Y7389876D01*
X5892800Y7329678D02*
G01*
X5892800Y7135876D01*
X5892800Y7329678D02*
G01*
X5975858Y7329678D01*
X6003543Y7320534D01*
X6012941Y7311389D01*
X6022086Y7292847D01*
X6022086Y7265162D01*
X6012941Y7246620D01*
X6003543Y7237476D01*
X5975858Y7228078D01*
X5892800Y7228078D01*
X6083045Y7329678D02*
G01*
X6129274Y7135876D01*
X6175502Y7329678D02*
G01*
X6129274Y7135876D01*
X6175502Y7329678D02*
G01*
X6221729Y7135876D01*
X6267704Y7329678D02*
G01*
X6221729Y7135876D01*
X6328663Y7329678D02*
G01*
X6328663Y7135876D01*
X6328663Y7329678D02*
G01*
X6402577Y7135876D01*
X6476491Y7329678D02*
G01*
X6402577Y7135876D01*
X6476491Y7329678D02*
G01*
X6476491Y7135876D01*
X6143243Y7062978D02*
G01*
X6051041Y7062978D01*
X6041643Y6979920D01*
X6051041Y6989063D01*
X6078727Y6998462D01*
X6106413Y6998462D01*
X6134100Y6989063D01*
X6152641Y6970776D01*
X6161786Y6943089D01*
X6161786Y6924547D01*
X6152641Y6896862D01*
X6134100Y6878320D01*
X6106413Y6869176D01*
X6078727Y6869176D01*
X6051041Y6878320D01*
X6041643Y6887463D01*
X6032500Y6906005D01*
X6222745Y7062978D02*
G01*
X6296659Y6869176D01*
X6370574Y7062978D02*
G01*
X6296659Y6869176D01*
X6145529Y6750050D02*
G01*
X6136386Y6768592D01*
X6117843Y6787134D01*
X6099556Y6796278D01*
X6062472Y6796278D01*
X6043929Y6787134D01*
X6025641Y6768592D01*
X6016243Y6750050D01*
X6007100Y6722363D01*
X6007100Y6676389D01*
X6016243Y6648450D01*
X6025641Y6630162D01*
X6043929Y6611620D01*
X6062472Y6602476D01*
X6099556Y6602476D01*
X6117843Y6611620D01*
X6136386Y6630162D01*
X6145529Y6648450D01*
X6145529Y6676389D01*
X6099556Y6676389D02*
G01*
X6145529Y6676389D01*
X6206490Y6796278D02*
G01*
X6206490Y6602476D01*
X6206490Y6796278D02*
G01*
X6336029Y6602476D01*
X6336029Y6796278D02*
G01*
X6336029Y6602476D01*
X6396990Y6796278D02*
G01*
X6396990Y6602476D01*
X6396990Y6796278D02*
G01*
X6461506Y6796278D01*
X6489191Y6787134D01*
X6507734Y6768592D01*
X6516877Y6750050D01*
X6526275Y6722363D01*
X6526275Y6676389D01*
X6516877Y6648450D01*
X6507734Y6630162D01*
X6489191Y6611620D01*
X6461506Y6602476D01*
X6396990Y6602476D01*
X7049770Y7761478D02*
G01*
X7049770Y7567676D01*
X6985000Y7761478D02*
G01*
X7114286Y7761478D01*
X7446772Y7733792D02*
G01*
X7428229Y7752334D01*
X7400543Y7761478D01*
X7363713Y7761478D01*
X7336027Y7752334D01*
X7317486Y7733792D01*
X7317486Y7715250D01*
X7326629Y7696962D01*
X7336027Y7687563D01*
X7354570Y7678420D01*
X7409941Y7659878D01*
X7428229Y7650734D01*
X7437627Y7641589D01*
X7446772Y7623047D01*
X7446772Y7595362D01*
X7428229Y7576820D01*
X7400543Y7567676D01*
X7363713Y7567676D01*
X7336027Y7576820D01*
X7317486Y7595362D01*
X7507731Y7761478D02*
G01*
X7507731Y7567676D01*
X7507731Y7761478D02*
G01*
X7590790Y7761478D01*
X7618729Y7752334D01*
X7627874Y7743189D01*
X7637018Y7724647D01*
X7637018Y7706105D01*
X7627874Y7687563D01*
X7618729Y7678420D01*
X7590790Y7669276D01*
X7507731Y7669276D01*
X7572502Y7669276D02*
G01*
X7637018Y7567676D01*
X7697977Y7761478D02*
G01*
X7771891Y7567676D01*
X7845806Y7761478D02*
G01*
X7771891Y7567676D01*
X6997700Y7062978D02*
G01*
X6997700Y6869176D01*
X6997700Y7062978D02*
G01*
X7080758Y7062978D01*
X7108443Y7053834D01*
X7117841Y7044689D01*
X7126986Y7026147D01*
X7126986Y7007605D01*
X7117841Y6989063D01*
X7108443Y6979920D01*
X7080758Y6970776D01*
X6997700Y6970776D02*
G01*
X7080758Y6970776D01*
X7108443Y6961378D01*
X7117841Y6952234D01*
X7126986Y6933692D01*
X7126986Y6906005D01*
X7117841Y6887463D01*
X7108443Y6878320D01*
X7080758Y6869176D01*
X6997700Y6869176D01*
X7459472Y7035292D02*
G01*
X7440929Y7053834D01*
X7413243Y7062978D01*
X7376413Y7062978D01*
X7348727Y7053834D01*
X7330186Y7035292D01*
X7330186Y7016750D01*
X7339329Y6998462D01*
X7348727Y6989063D01*
X7367270Y6979920D01*
X7422641Y6961378D01*
X7440929Y6952234D01*
X7450327Y6943089D01*
X7459472Y6924547D01*
X7459472Y6896862D01*
X7440929Y6878320D01*
X7413243Y6869176D01*
X7376413Y6869176D01*
X7348727Y6878320D01*
X7330186Y6896862D01*
X7520431Y7062978D02*
G01*
X7520431Y6869176D01*
X7520431Y7062978D02*
G01*
X7603490Y7062978D01*
X7631429Y7053834D01*
X7640574Y7044689D01*
X7649718Y7026147D01*
X7649718Y7007605D01*
X7640574Y6989063D01*
X7631429Y6979920D01*
X7603490Y6970776D01*
X7520431Y6970776D01*
X7585202Y6970776D02*
G01*
X7649718Y6869176D01*
X7710677Y7062978D02*
G01*
X7784591Y6869176D01*
X7858506Y7062978D02*
G01*
X7784591Y6869176D01*
X5233670Y7824978D02*
G01*
X5233670Y7631176D01*
X5168900Y7824978D02*
G01*
X5298186Y7824978D01*
X5488431Y7797292D02*
G01*
X5469890Y7815834D01*
X5442204Y7824978D01*
X5405374Y7824978D01*
X5377688Y7815834D01*
X5359145Y7797292D01*
X5359145Y7778750D01*
X5368290Y7760462D01*
X5377688Y7751063D01*
X5396229Y7741920D01*
X5451602Y7723378D01*
X5469890Y7714234D01*
X5479288Y7705089D01*
X5488431Y7686547D01*
X5488431Y7658862D01*
X5469890Y7640320D01*
X5442204Y7631176D01*
X5405374Y7631176D01*
X5377688Y7640320D01*
X5359145Y7658862D01*
X5168900Y7062978D02*
G01*
X5168900Y6869176D01*
X5168900Y6869176D02*
G01*
X5279643Y6869176D01*
X5340604Y7062978D02*
G01*
X5340604Y6869176D01*
X5340604Y7062978D02*
G01*
X5460745Y7062978D01*
X5340604Y6970776D02*
G01*
X5414518Y6970776D01*
X5340604Y6869176D02*
G01*
X5460745Y6869176D01*
X5521706Y7062978D02*
G01*
X5521706Y6869176D01*
X5521706Y7062978D02*
G01*
X5586475Y7062978D01*
X5614161Y7053834D01*
X5632450Y7035292D01*
X5641847Y7016750D01*
X5650991Y6989063D01*
X5650991Y6943089D01*
X5641847Y6915150D01*
X5632450Y6896862D01*
X5614161Y6878320D01*
X5586475Y6869176D01*
X5521706Y6869176D01*
X4428743Y7037578D02*
G01*
X4336541Y7037578D01*
X4327143Y6954520D01*
X4336541Y6963663D01*
X4364227Y6973062D01*
X4391913Y6973062D01*
X4419600Y6963663D01*
X4438141Y6945376D01*
X4447286Y6917689D01*
X4447286Y6899147D01*
X4438141Y6871462D01*
X4419600Y6852920D01*
X4391913Y6843776D01*
X4364227Y6843776D01*
X4336541Y6852920D01*
X4327143Y6862063D01*
X4318000Y6880605D01*
X4508245Y7037578D02*
G01*
X4582159Y6843776D01*
X4656074Y7037578D02*
G01*
X4582159Y6843776D01*
X4367529Y6750050D02*
G01*
X4358386Y6768592D01*
X4339843Y6787134D01*
X4321556Y6796278D01*
X4284472Y6796278D01*
X4265929Y6787134D01*
X4247641Y6768592D01*
X4238243Y6750050D01*
X4229100Y6722363D01*
X4229100Y6676389D01*
X4238243Y6648450D01*
X4247641Y6630162D01*
X4265929Y6611620D01*
X4284472Y6602476D01*
X4321556Y6602476D01*
X4339843Y6611620D01*
X4358386Y6630162D01*
X4367529Y6648450D01*
X4367529Y6676389D01*
X4321556Y6676389D02*
G01*
X4367529Y6676389D01*
X4428490Y6796278D02*
G01*
X4428490Y6602476D01*
X4428490Y6796278D02*
G01*
X4558029Y6602476D01*
X4558029Y6796278D02*
G01*
X4558029Y6602476D01*
X4618990Y6796278D02*
G01*
X4618990Y6602476D01*
X4618990Y6796278D02*
G01*
X4683506Y6796278D01*
X4711191Y6787134D01*
X4729734Y6768592D01*
X4738877Y6750050D01*
X4748275Y6722363D01*
X4748275Y6676389D01*
X4738877Y6648450D01*
X4729734Y6630162D01*
X4711191Y6611620D01*
X4683506Y6602476D01*
X4618990Y6602476D01*
X4127500Y7291578D02*
G01*
X4127500Y7097776D01*
X4127500Y7291578D02*
G01*
X4210558Y7291578D01*
X4238243Y7282434D01*
X4247641Y7273289D01*
X4256786Y7254747D01*
X4256786Y7227062D01*
X4247641Y7208520D01*
X4238243Y7199376D01*
X4210558Y7189978D01*
X4127500Y7189978D01*
X4317745Y7291578D02*
G01*
X4363974Y7097776D01*
X4410202Y7291578D02*
G01*
X4363974Y7097776D01*
X4410202Y7291578D02*
G01*
X4456429Y7097776D01*
X4502404Y7291578D02*
G01*
X4456429Y7097776D01*
X4563363Y7291578D02*
G01*
X4563363Y7097776D01*
X4563363Y7291578D02*
G01*
X4637277Y7097776D01*
X4711191Y7291578D02*
G01*
X4637277Y7097776D01*
X4711191Y7291578D02*
G01*
X4711191Y7097776D01*
X4240529Y7499350D02*
G01*
X4231386Y7517892D01*
X4212843Y7536434D01*
X4194556Y7545578D01*
X4157472Y7545578D01*
X4138929Y7536434D01*
X4120641Y7517892D01*
X4111243Y7499350D01*
X4102100Y7471663D01*
X4102100Y7425689D01*
X4111243Y7397750D01*
X4120641Y7379462D01*
X4138929Y7360920D01*
X4157472Y7351776D01*
X4194556Y7351776D01*
X4212843Y7360920D01*
X4231386Y7379462D01*
X4240529Y7397750D01*
X4240529Y7425689D01*
X4194556Y7425689D02*
G01*
X4240529Y7425689D01*
X4301490Y7545578D02*
G01*
X4301490Y7351776D01*
X4301490Y7545578D02*
G01*
X4431029Y7351776D01*
X4431029Y7545578D02*
G01*
X4431029Y7351776D01*
X4491990Y7545578D02*
G01*
X4491990Y7351776D01*
X4491990Y7545578D02*
G01*
X4556506Y7545578D01*
X4584191Y7536434D01*
X4602734Y7517892D01*
X4611877Y7499350D01*
X4621275Y7471663D01*
X4621275Y7425689D01*
X4611877Y7397750D01*
X4602734Y7379462D01*
X4584191Y7360920D01*
X4556506Y7351776D01*
X4491990Y7351776D01*
X4158741Y7824978D02*
G01*
X4260341Y7824978D01*
X4204970Y7751063D01*
X4232656Y7751063D01*
X4250943Y7741920D01*
X4260341Y7732776D01*
X4269486Y7705089D01*
X4269486Y7686547D01*
X4260341Y7658862D01*
X4241800Y7640320D01*
X4214113Y7631176D01*
X4186427Y7631176D01*
X4158741Y7640320D01*
X4149343Y7649463D01*
X4140200Y7668005D01*
X4330445Y7824978D02*
G01*
X4404359Y7631176D01*
X4478274Y7824978D02*
G01*
X4404359Y7631176D01*
X4557775Y7824978D02*
G01*
X4659375Y7824978D01*
X4603750Y7751063D01*
X4631690Y7751063D01*
X4649977Y7741920D01*
X4659375Y7732776D01*
X4668520Y7705089D01*
X4668520Y7686547D01*
X4659375Y7658862D01*
X4640834Y7640320D01*
X4613147Y7631176D01*
X4585461Y7631176D01*
X4557775Y7640320D01*
X4548377Y7649463D01*
X4539234Y7668005D01*
X4208272Y8104378D02*
G01*
X4189729Y8095234D01*
X4171441Y8076692D01*
X4162043Y8058150D01*
X4152900Y8030463D01*
X4152900Y7984489D01*
X4162043Y7956550D01*
X4171441Y7938262D01*
X4189729Y7919720D01*
X4208272Y7910576D01*
X4245356Y7910576D01*
X4263643Y7919720D01*
X4282186Y7938262D01*
X4291329Y7956550D01*
X4300727Y7984489D01*
X4300727Y8030463D01*
X4291329Y8058150D01*
X4282186Y8076692D01*
X4263643Y8095234D01*
X4245356Y8104378D01*
X4208272Y8104378D01*
X4361688Y8104378D02*
G01*
X4361688Y7965947D01*
X4370831Y7938262D01*
X4389374Y7919720D01*
X4417059Y7910576D01*
X4435602Y7910576D01*
X4463288Y7919720D01*
X4481829Y7938262D01*
X4490974Y7965947D01*
X4490974Y8104378D01*
X4616450Y8104378D02*
G01*
X4616450Y7910576D01*
X4551934Y8104378D02*
G01*
X4681220Y8104378D01*
X5791200Y6164834D02*
G01*
X5957570Y6164834D01*
X4782058Y6222492D02*
G01*
X4782058Y6056376D01*
X4699000Y6139434D02*
G01*
X4865370Y6139434D01*
X6572758Y6235192D02*
G01*
X6572758Y6069076D01*
X6489700Y6152134D02*
G01*
X6656070Y6152134D01*
X7620000Y6164834D02*
G01*
X7786370Y6164834D01*
X908557Y6705092D02*
G01*
X908557Y6538976D01*
X825500Y6622034D02*
G01*
X991870Y6622034D01*
X908557Y7860792D02*
G01*
X908557Y7694676D01*
X825500Y7777734D02*
G01*
X991870Y7777734D01*
D24*
X1208278Y6617208D02*
G01*
X1202944Y6627621D01*
X1192529Y6638036D01*
X1182370Y6643115D01*
X1161542Y6643115D01*
X1151128Y6638036D01*
X1140713Y6627621D01*
X1135379Y6617208D01*
X1130300Y6601460D01*
X1130300Y6575552D01*
X1135379Y6560058D01*
X1140713Y6549644D01*
X1151128Y6539229D01*
X1161542Y6534150D01*
X1182370Y6534150D01*
X1192529Y6539229D01*
X1202944Y6549644D01*
X1208278Y6560058D01*
X1242568Y6622287D02*
G01*
X1252981Y6627621D01*
X1268476Y6643115D01*
X1268476Y6534150D01*
X1408684Y7569200D02*
G01*
X1517650Y7569200D01*
X1408684Y7641844D02*
G01*
X1517650Y7641844D01*
X1460500Y7569200D02*
G01*
X1460500Y7641844D01*
X1429512Y7676134D02*
G01*
X1424178Y7686547D01*
X1408684Y7702295D01*
X1517650Y7702295D01*
X5308600Y6592315D02*
G01*
X5308600Y6483350D01*
X5381243Y6592315D02*
G01*
X5381243Y6483350D01*
X5308600Y6540500D02*
G01*
X5381243Y6540500D01*
X5420868Y6566408D02*
G01*
X5420868Y6571487D01*
X5425947Y6581902D01*
X5431281Y6587236D01*
X5441695Y6592315D01*
X5462270Y6592315D01*
X5472684Y6587236D01*
X5478018Y6581902D01*
X5483097Y6571487D01*
X5483097Y6561073D01*
X5478018Y6550660D01*
X5467604Y6535165D01*
X5415534Y6483350D01*
X5488431Y6483350D01*
X7112000Y6592315D02*
G01*
X7112000Y6483350D01*
X7184643Y6592315D02*
G01*
X7184643Y6483350D01*
X7112000Y6540500D02*
G01*
X7184643Y6540500D01*
X7229347Y6592315D02*
G01*
X7286497Y6592315D01*
X7255509Y6550660D01*
X7271004Y6550660D01*
X7281418Y6545579D01*
X7286497Y6540500D01*
X7291831Y6524752D01*
X7291831Y6514337D01*
X7286497Y6498844D01*
X7276084Y6488429D01*
X7260590Y6483350D01*
X7245095Y6483350D01*
X7229347Y6488429D01*
X7224268Y6493510D01*
X7218934Y6503923D01*
X862584Y8191500D02*
G01*
X971550Y8191500D01*
X862584Y8264144D02*
G01*
X971550Y8264144D01*
X914400Y8191500D02*
G01*
X914400Y8264144D01*
X862584Y8350504D02*
G01*
X935228Y8298434D01*
X935228Y8376412D01*
X862584Y8350504D02*
G01*
X971550Y8350504D01*
X4672584Y7327900D02*
G01*
X4781550Y7327900D01*
X4672584Y7400544D02*
G01*
X4781550Y7400544D01*
X4724400Y7327900D02*
G01*
X4724400Y7400544D01*
X4672584Y7497318D02*
G01*
X4672584Y7445247D01*
X4719320Y7440168D01*
X4714240Y7445247D01*
X4708906Y7460995D01*
X4708906Y7476489D01*
X4714240Y7491984D01*
X4724400Y7502397D01*
X4740147Y7507731D01*
X4750561Y7507731D01*
X4766056Y7502397D01*
X4776470Y7491984D01*
X4781550Y7476489D01*
X4781550Y7460995D01*
X4776470Y7445247D01*
X4771390Y7440168D01*
X4760975Y7434834D01*
X6450584Y7340600D02*
G01*
X6559550Y7340600D01*
X6450584Y7413244D02*
G01*
X6559550Y7413244D01*
X6502400Y7340600D02*
G01*
X6502400Y7413244D01*
X6466077Y7510018D02*
G01*
X6455663Y7504684D01*
X6450584Y7489189D01*
X6450584Y7478776D01*
X6455663Y7463281D01*
X6471411Y7452868D01*
X6497320Y7447534D01*
X6523227Y7447534D01*
X6544056Y7452868D01*
X6554470Y7463281D01*
X6559550Y7478776D01*
X6559550Y7484110D01*
X6554470Y7499604D01*
X6544056Y7510018D01*
X6528561Y7515097D01*
X6523227Y7515097D01*
X6507734Y7510018D01*
X6497320Y7499604D01*
X6492240Y7484110D01*
X6492240Y7478776D01*
X6497320Y7463281D01*
X6507734Y7452868D01*
X6523227Y7447534D01*
D11*
X6915150Y9518650D02*
G01*
X7823200Y9017000D01*
D22*
X1409700Y6502400D02*
G01*
X1409700Y6250939D01*
X901700Y6250939D01*
X901700Y6502400D01*
X1409700Y6502400D01*
X1549400Y8610600D02*
G01*
X1803400Y8610600D01*
X1803400Y6578600D01*
X1549400Y6578600D01*
X1549400Y6769100D01*
D23*
X1549400Y8610600D02*
G01*
X1549400Y6769100D01*
D22*
X5842000Y6451600D02*
G01*
X5842000Y6197600D01*
X4826000Y6197600D01*
X4826000Y6451600D01*
X5016500Y6451600D01*
D23*
X5842000Y6451600D02*
G01*
X5016500Y6451600D01*
D22*
X7645400Y6451600D02*
G01*
X7645400Y6197600D01*
X6629400Y6197600D01*
X6629400Y6451600D01*
X6819900Y6451600D01*
D23*
X7645400Y6451600D02*
G01*
X6819900Y6451600D01*
D22*
X1003300Y8343900D02*
G01*
X1003300Y8597900D01*
X1254760Y8597900D01*
X1254760Y7835900D01*
X1003300Y7835900D01*
X1003300Y8343900D01*
D10*
X1282700Y8610600D02*
G01*
X6388100Y8610600D01*
X1282700Y9118600D02*
G01*
X6388100Y9118600D01*
X6388100Y9118600D02*
G01*
X6388100Y8610600D01*
X1282700Y9118600D02*
G01*
X1282700Y8610600D01*
X5100700Y6593298D02*
G01*
X5100700Y8113301D01*
X4830699Y6593298D02*
G01*
X5100700Y6593298D01*
X4830699Y8113301D02*
G01*
X4830699Y6593298D01*
X5100700Y8113301D02*
G01*
X4830699Y8113301D01*
X6878700Y6605998D02*
G01*
X6878700Y8126001D01*
X6608699Y6605998D02*
G01*
X6878700Y6605998D01*
X6608699Y8126001D02*
G01*
X6608699Y6605998D01*
X6878700Y8126001D02*
G01*
X6608699Y8126001D01*
M02*
