G04 Layer: BottomSilkscreenLayer*
G04 EasyEDA v6.5.5, 2022-08-23 09:37:03*
G04 dbdef394597f406e9c5f1e3ded40daaf,59b13081229d43bfb627b6405b151bcb,10*
G04 Gerber Generator version 0.2*
G04 Scale: 100 percent, Rotated: No, Reflected: No *
G04 Dimensions in millimeters *
G04 leading zeros omitted , absolute positions ,4 integer and 5 decimal *
%FSLAX45Y45*%
%MOMM*%

%ADD10C,0.2540*%
%ADD22C,0.2032*%
%ADD24C,0.1524*%

%LPD*%
D22*
X4432300Y6274493D02*
G01*
X4432300Y6145184D01*
X4432300Y6219075D02*
G01*
X4423064Y6246784D01*
X4404591Y6265255D01*
X4386117Y6274493D01*
X4358408Y6274493D01*
X4297448Y6219075D02*
G01*
X4186613Y6219075D01*
X4186613Y6237546D01*
X4195848Y6256020D01*
X4205084Y6265255D01*
X4223557Y6274493D01*
X4251266Y6274493D01*
X4269740Y6265255D01*
X4288213Y6246784D01*
X4297448Y6219075D01*
X4297448Y6200602D01*
X4288213Y6172893D01*
X4269740Y6154420D01*
X4251266Y6145184D01*
X4223557Y6145184D01*
X4205084Y6154420D01*
X4186613Y6172893D01*
X4125653Y6274493D02*
G01*
X4070235Y6145184D01*
X4014815Y6274493D02*
G01*
X4070235Y6145184D01*
X3811615Y6302202D02*
G01*
X3793144Y6311437D01*
X3765435Y6339146D01*
X3765435Y6145184D01*
X3695237Y6191364D02*
G01*
X3704475Y6182128D01*
X3695237Y6172893D01*
X3686002Y6182128D01*
X3695237Y6191364D01*
X3514204Y6311437D02*
G01*
X3523442Y6329911D01*
X3551151Y6339146D01*
X3569624Y6339146D01*
X3597333Y6329911D01*
X3615804Y6302202D01*
X3625042Y6256020D01*
X3625042Y6209837D01*
X3615804Y6172893D01*
X3597333Y6154420D01*
X3569624Y6145184D01*
X3560386Y6145184D01*
X3532677Y6154420D01*
X3514204Y6172893D01*
X3504968Y6200602D01*
X3504968Y6209837D01*
X3514204Y6237546D01*
X3532677Y6256020D01*
X3560386Y6265255D01*
X3569624Y6265255D01*
X3597333Y6256020D01*
X3615804Y6237546D01*
X3625042Y6209837D01*
X5867400Y9412478D02*
G01*
X5867400Y9218676D01*
X5867400Y9412478D02*
G01*
X5784341Y9412478D01*
X5756656Y9403334D01*
X5747258Y9394189D01*
X5738113Y9375647D01*
X5738113Y9357105D01*
X5747258Y9338563D01*
X5756656Y9329420D01*
X5784341Y9320276D01*
X5867400Y9320276D01*
X5802629Y9320276D02*
G01*
X5738113Y9218676D01*
X5677154Y9412478D02*
G01*
X5677154Y9218676D01*
X5677154Y9412478D02*
G01*
X5594095Y9412478D01*
X5566409Y9403334D01*
X5557011Y9394189D01*
X5547868Y9375647D01*
X5547868Y9347962D01*
X5557011Y9329420D01*
X5566409Y9320276D01*
X5594095Y9310878D01*
X5677154Y9310878D01*
X5486908Y9412478D02*
G01*
X5477509Y9403334D01*
X5468365Y9412478D01*
X5477509Y9421876D01*
X5486908Y9412478D01*
X5477509Y9347962D02*
G01*
X5477509Y9218676D01*
X5135879Y9412478D02*
G01*
X5265165Y9218676D01*
X5265165Y9412478D02*
G01*
X5135879Y9412478D01*
X5265165Y9218676D02*
G01*
X5135879Y9218676D01*
X5074920Y9412478D02*
G01*
X5074920Y9218676D01*
X5074920Y9412478D02*
G01*
X4954777Y9412478D01*
X5074920Y9320276D02*
G01*
X5001006Y9320276D01*
X5074920Y9218676D02*
G01*
X4954777Y9218676D01*
X4893818Y9412478D02*
G01*
X4893818Y9218676D01*
X4893818Y9412478D02*
G01*
X4810759Y9412478D01*
X4783074Y9403334D01*
X4773929Y9394189D01*
X4764531Y9375647D01*
X4764531Y9357105D01*
X4773929Y9338563D01*
X4783074Y9329420D01*
X4810759Y9320276D01*
X4893818Y9320276D01*
X4829302Y9320276D02*
G01*
X4764531Y9218676D01*
X4648200Y9412478D02*
G01*
X4666741Y9403334D01*
X4685029Y9384792D01*
X4694427Y9366250D01*
X4703572Y9338563D01*
X4703572Y9292589D01*
X4694427Y9264650D01*
X4685029Y9246362D01*
X4666741Y9227820D01*
X4648200Y9218676D01*
X4611370Y9218676D01*
X4592827Y9227820D01*
X4574286Y9246362D01*
X4565141Y9264650D01*
X4555743Y9292589D01*
X4555743Y9338563D01*
X4565141Y9366250D01*
X4574286Y9384792D01*
X4592827Y9403334D01*
X4611370Y9412478D01*
X4648200Y9412478D01*
X4343400Y9366250D02*
G01*
X4343400Y9375647D01*
X4334256Y9394189D01*
X4324858Y9403334D01*
X4306570Y9412478D01*
X4269486Y9412478D01*
X4250943Y9403334D01*
X4241800Y9394189D01*
X4232656Y9375647D01*
X4232656Y9357105D01*
X4241800Y9338563D01*
X4260341Y9310878D01*
X4352543Y9218676D01*
X4223258Y9218676D01*
D24*
X6361429Y6592315D02*
G01*
X6361429Y6509257D01*
X6366763Y6493510D01*
X6371843Y6488429D01*
X6382258Y6483350D01*
X6392672Y6483350D01*
X6403086Y6488429D01*
X6408420Y6493510D01*
X6413500Y6509257D01*
X6413500Y6519671D01*
X6327140Y6555994D02*
G01*
X6327140Y6503923D01*
X6322059Y6488429D01*
X6311645Y6483350D01*
X6296152Y6483350D01*
X6285738Y6488429D01*
X6269990Y6503923D01*
X6269990Y6555994D02*
G01*
X6269990Y6483350D01*
X6235700Y6555994D02*
G01*
X6235700Y6483350D01*
X6235700Y6535165D02*
G01*
X6220206Y6550660D01*
X6209791Y6555994D01*
X6194297Y6555994D01*
X6183884Y6550660D01*
X6178550Y6535165D01*
X6178550Y6483350D01*
X6178550Y6535165D02*
G01*
X6163056Y6550660D01*
X6152641Y6555994D01*
X6137147Y6555994D01*
X6126734Y6550660D01*
X6121400Y6535165D01*
X6121400Y6483350D01*
X6087109Y6555994D02*
G01*
X6087109Y6446773D01*
X6087109Y6540500D02*
G01*
X6076950Y6550660D01*
X6066536Y6555994D01*
X6050788Y6555994D01*
X6040374Y6550660D01*
X6029959Y6540500D01*
X6024879Y6524752D01*
X6024879Y6514337D01*
X6029959Y6498844D01*
X6040374Y6488429D01*
X6050788Y6483350D01*
X6066536Y6483350D01*
X6076950Y6488429D01*
X6087109Y6498844D01*
X6477000Y6224038D02*
G01*
X6477000Y6146106D01*
X6471805Y6130521D01*
X6461414Y6120129D01*
X6445826Y6114935D01*
X6435435Y6114935D01*
X6419850Y6120129D01*
X6409458Y6130521D01*
X6404264Y6146106D01*
X6404264Y6224038D01*
X6297236Y6208453D02*
G01*
X6307627Y6218844D01*
X6323215Y6224038D01*
X6343995Y6224038D01*
X6359583Y6218844D01*
X6369974Y6208453D01*
X6369974Y6198062D01*
X6364777Y6187671D01*
X6359583Y6182474D01*
X6349192Y6177279D01*
X6318018Y6166888D01*
X6307627Y6161694D01*
X6302433Y6156497D01*
X6297236Y6146106D01*
X6297236Y6130521D01*
X6307627Y6120129D01*
X6323215Y6114935D01*
X6343995Y6114935D01*
X6359583Y6120129D01*
X6369974Y6130521D01*
X6262946Y6224038D02*
G01*
X6262946Y6114935D01*
X6262946Y6224038D02*
G01*
X6216187Y6224038D01*
X6200602Y6218844D01*
X6195405Y6213647D01*
X6190211Y6203256D01*
X6190211Y6192865D01*
X6195405Y6182474D01*
X6200602Y6177279D01*
X6216187Y6172085D01*
X6262946Y6172085D02*
G01*
X6216187Y6172085D01*
X6200602Y6166888D01*
X6195405Y6161694D01*
X6190211Y6151303D01*
X6190211Y6135715D01*
X6195405Y6125324D01*
X6200602Y6120129D01*
X6216187Y6114935D01*
X6262946Y6114935D01*
X6155921Y6161694D02*
G01*
X6062403Y6161694D01*
X5950181Y6198062D02*
G01*
X5955375Y6208453D01*
X5965766Y6218844D01*
X5976157Y6224038D01*
X5996940Y6224038D01*
X6007331Y6218844D01*
X6017722Y6208453D01*
X6022916Y6198062D01*
X6028113Y6182474D01*
X6028113Y6156497D01*
X6022916Y6140912D01*
X6017722Y6130521D01*
X6007331Y6120129D01*
X5996940Y6114935D01*
X5976157Y6114935D01*
X5965766Y6120129D01*
X5955375Y6130521D01*
X5950181Y6140912D01*
D22*
X6063741Y6895592D02*
G01*
X6063741Y6729476D01*
X6146800Y6812534D02*
G01*
X5980429Y6812534D01*
X7740141Y6882892D02*
G01*
X7740141Y6716776D01*
X7823200Y6799834D02*
G01*
X7656829Y6799834D01*
D24*
X5662422Y6960108D02*
G01*
X5667756Y6970521D01*
X5678170Y6980936D01*
X5688329Y6986015D01*
X5709158Y6986015D01*
X5719572Y6980936D01*
X5729986Y6970521D01*
X5735320Y6960108D01*
X5740400Y6944360D01*
X5740400Y6918452D01*
X5735320Y6902958D01*
X5729986Y6892544D01*
X5719572Y6882129D01*
X5709158Y6877050D01*
X5688329Y6877050D01*
X5678170Y6882129D01*
X5667756Y6892544D01*
X5662422Y6902958D01*
X5623052Y6960108D02*
G01*
X5623052Y6965187D01*
X5617718Y6975602D01*
X5612638Y6980936D01*
X5602224Y6986015D01*
X5581395Y6986015D01*
X5570981Y6980936D01*
X5565902Y6975602D01*
X5560568Y6965187D01*
X5560568Y6954773D01*
X5565902Y6944360D01*
X5576315Y6928865D01*
X5628131Y6877050D01*
X5555488Y6877050D01*
X7326122Y6947408D02*
G01*
X7331456Y6957821D01*
X7341870Y6968236D01*
X7352029Y6973315D01*
X7372858Y6973315D01*
X7383272Y6968236D01*
X7393686Y6957821D01*
X7399020Y6947408D01*
X7404100Y6931660D01*
X7404100Y6905752D01*
X7399020Y6890258D01*
X7393686Y6879844D01*
X7383272Y6869429D01*
X7372858Y6864350D01*
X7352029Y6864350D01*
X7341870Y6869429D01*
X7331456Y6879844D01*
X7326122Y6890258D01*
X7281418Y6973315D02*
G01*
X7224268Y6973315D01*
X7255509Y6931660D01*
X7240015Y6931660D01*
X7229602Y6926579D01*
X7224268Y6921500D01*
X7219188Y6905752D01*
X7219188Y6895337D01*
X7224268Y6879844D01*
X7234681Y6869429D01*
X7250429Y6864350D01*
X7265924Y6864350D01*
X7281418Y6869429D01*
X7286752Y6874510D01*
X7291831Y6884923D01*
X1587500Y9437115D02*
G01*
X1587500Y9328150D01*
X1587500Y9328150D02*
G01*
X1525270Y9328150D01*
X1490979Y9437115D02*
G01*
X1490979Y9328150D01*
X1490979Y9437115D02*
G01*
X1423415Y9437115D01*
X1490979Y9385300D02*
G01*
X1449323Y9385300D01*
X1490979Y9328150D02*
G01*
X1423415Y9328150D01*
X1389126Y9437115D02*
G01*
X1389126Y9328150D01*
X1389126Y9437115D02*
G01*
X1352550Y9437115D01*
X1337055Y9432036D01*
X1326642Y9421621D01*
X1321562Y9411208D01*
X1316228Y9395460D01*
X1316228Y9369552D01*
X1321562Y9354058D01*
X1326642Y9343644D01*
X1337055Y9333229D01*
X1352550Y9328150D01*
X1389126Y9328150D01*
X1281937Y9416287D02*
G01*
X1271523Y9421621D01*
X1256029Y9437115D01*
X1256029Y9328150D01*
X3594100Y9462515D02*
G01*
X3594100Y9353550D01*
X3594100Y9462515D02*
G01*
X3547363Y9462515D01*
X3531870Y9457436D01*
X3526536Y9452102D01*
X3521456Y9441687D01*
X3521456Y9431274D01*
X3526536Y9420860D01*
X3531870Y9415779D01*
X3547363Y9410700D01*
X3594100Y9410700D01*
X3557777Y9410700D02*
G01*
X3521456Y9353550D01*
X3487165Y9441687D02*
G01*
X3476752Y9447021D01*
X3461004Y9462515D01*
X3461004Y9353550D01*
X3810000Y9259315D02*
G01*
X3810000Y9150350D01*
X3810000Y9259315D02*
G01*
X3763263Y9259315D01*
X3747770Y9254236D01*
X3742436Y9248902D01*
X3737356Y9238487D01*
X3737356Y9222994D01*
X3742436Y9212579D01*
X3747770Y9207500D01*
X3763263Y9202165D01*
X3810000Y9202165D01*
X3703065Y9238487D02*
G01*
X3692652Y9243821D01*
X3676904Y9259315D01*
X3676904Y9150350D01*
D22*
X5461000Y6845300D02*
G01*
X5461000Y6593839D01*
X5969000Y6593839D01*
X5969000Y6845300D01*
X5461000Y6845300D01*
X7124700Y6832600D02*
G01*
X7124700Y6581139D01*
X7632700Y6581139D01*
X7632700Y6832600D01*
X7124700Y6832600D01*
D10*
X2060399Y9175003D02*
G01*
X1800400Y9175003D01*
X3187700Y9385300D02*
G01*
X3213100Y9385300D01*
X2679700Y9385300D02*
G01*
X2654300Y9385300D01*
X3187700Y9385300D02*
G01*
X3187700Y9461500D01*
X3187700Y9309100D02*
G01*
X3187700Y9385300D01*
X2679700Y9309100D02*
G01*
X3187700Y9309100D01*
X2679700Y9385300D02*
G01*
X2679700Y9309100D01*
X2679700Y9461500D02*
G01*
X2679700Y9385300D01*
X3187700Y9461500D02*
G01*
X2679700Y9461500D01*
G75*
G01*
X1792224Y9177833D02*
G02*
X2068576Y9177833I138176J220244D01*
G36*
X1282700Y9131300D02*
G01*
X6413500Y9131300D01*
X6413500Y8597900D01*
X1282700Y8597900D01*
G37*
M02*
