G04 Layer: BottomSilkscreenLayer*
G04 EasyEDA v6.5.5, 2022-06-30 12:06:16*
G04 14c6360a081142a8b98b93fd51069ae2,59b13081229d43bfb627b6405b151bcb,10*
G04 Gerber Generator version 0.2*
G04 Scale: 100 percent, Rotated: No, Reflected: No *
G04 Dimensions in millimeters *
G04 leading zeros omitted , absolute positions ,4 integer and 5 decimal *
%FSLAX45Y45*%
%MOMM*%

%ADD10C,0.2540*%
%ADD12C,0.2032*%
%ADD22C,0.1524*%

%LPD*%
D22*
X5662422Y6960108D02*
G01*
X5667756Y6970521D01*
X5678170Y6980936D01*
X5688329Y6986015D01*
X5709158Y6986015D01*
X5719572Y6980936D01*
X5729986Y6970521D01*
X5735320Y6960108D01*
X5740400Y6944360D01*
X5740400Y6918452D01*
X5735320Y6902958D01*
X5729986Y6892544D01*
X5719572Y6882129D01*
X5709158Y6877050D01*
X5688329Y6877050D01*
X5678170Y6882129D01*
X5667756Y6892544D01*
X5662422Y6902958D01*
X5623052Y6960108D02*
G01*
X5623052Y6965187D01*
X5617718Y6975602D01*
X5612638Y6980936D01*
X5602224Y6986015D01*
X5581395Y6986015D01*
X5570981Y6980936D01*
X5565902Y6975602D01*
X5560568Y6965187D01*
X5560568Y6954773D01*
X5565902Y6944360D01*
X5576315Y6928865D01*
X5628131Y6877050D01*
X5555488Y6877050D01*
X7326122Y6947408D02*
G01*
X7331456Y6957821D01*
X7341870Y6968236D01*
X7352029Y6973315D01*
X7372858Y6973315D01*
X7383272Y6968236D01*
X7393686Y6957821D01*
X7399020Y6947408D01*
X7404100Y6931660D01*
X7404100Y6905752D01*
X7399020Y6890258D01*
X7393686Y6879844D01*
X7383272Y6869429D01*
X7372858Y6864350D01*
X7352029Y6864350D01*
X7341870Y6869429D01*
X7331456Y6879844D01*
X7326122Y6890258D01*
X7281418Y6973315D02*
G01*
X7224268Y6973315D01*
X7255509Y6931660D01*
X7240015Y6931660D01*
X7229602Y6926579D01*
X7224268Y6921500D01*
X7219188Y6905752D01*
X7219188Y6895337D01*
X7224268Y6879844D01*
X7234681Y6869429D01*
X7250429Y6864350D01*
X7265924Y6864350D01*
X7281418Y6869429D01*
X7286752Y6874510D01*
X7291831Y6884923D01*
X1587500Y9437115D02*
G01*
X1587500Y9328150D01*
X1587500Y9328150D02*
G01*
X1525270Y9328150D01*
X1490979Y9437115D02*
G01*
X1490979Y9328150D01*
X1490979Y9437115D02*
G01*
X1423415Y9437115D01*
X1490979Y9385300D02*
G01*
X1449323Y9385300D01*
X1490979Y9328150D02*
G01*
X1423415Y9328150D01*
X1389126Y9437115D02*
G01*
X1389126Y9328150D01*
X1389126Y9437115D02*
G01*
X1352550Y9437115D01*
X1337055Y9432036D01*
X1326642Y9421621D01*
X1321562Y9411208D01*
X1316228Y9395460D01*
X1316228Y9369552D01*
X1321562Y9354058D01*
X1326642Y9343644D01*
X1337055Y9333229D01*
X1352550Y9328150D01*
X1389126Y9328150D01*
X1281937Y9416287D02*
G01*
X1271523Y9421621D01*
X1256029Y9437115D01*
X1256029Y9328150D01*
X3594100Y9462515D02*
G01*
X3594100Y9353550D01*
X3594100Y9462515D02*
G01*
X3547363Y9462515D01*
X3531870Y9457436D01*
X3526536Y9452102D01*
X3521456Y9441687D01*
X3521456Y9431274D01*
X3526536Y9420860D01*
X3531870Y9415779D01*
X3547363Y9410700D01*
X3594100Y9410700D01*
X3557777Y9410700D02*
G01*
X3521456Y9353550D01*
X3487165Y9441687D02*
G01*
X3476752Y9447021D01*
X3461004Y9462515D01*
X3461004Y9353550D01*
D12*
X5461000Y6845300D02*
G01*
X5461000Y6593839D01*
X5969000Y6593839D01*
X5969000Y6845300D01*
X5461000Y6845300D01*
X7124700Y6832600D02*
G01*
X7124700Y6581139D01*
X7632700Y6581139D01*
X7632700Y6832600D01*
X7124700Y6832600D01*
D10*
X2060399Y9175003D02*
G01*
X1800400Y9175003D01*
X3187700Y9385300D02*
G01*
X3213100Y9385300D01*
X2679700Y9385300D02*
G01*
X2654300Y9385300D01*
X3187700Y9385300D02*
G01*
X3187700Y9461500D01*
X3187700Y9309100D02*
G01*
X3187700Y9385300D01*
X2679700Y9309100D02*
G01*
X3187700Y9309100D01*
X2679700Y9385300D02*
G01*
X2679700Y9309100D01*
X2679700Y9461500D02*
G01*
X2679700Y9385300D01*
X3187700Y9461500D02*
G01*
X2679700Y9461500D01*
G75*
G01*
X1792224Y9177833D02*
G02*
X2068576Y9177833I138176J220244D01*
M02*
