G04 Layer: BottomLayer*
G04 EasyEDA v6.5.5, 2022-06-30 12:06:16*
G04 14c6360a081142a8b98b93fd51069ae2,59b13081229d43bfb627b6405b151bcb,10*
G04 Gerber Generator version 0.2*
G04 Scale: 100 percent, Rotated: No, Reflected: No *
G04 Dimensions in millimeters *
G04 leading zeros omitted , absolute positions ,4 integer and 5 decimal *
%FSLAX45Y45*%
%MOMM*%

%ADD10C,0.2540*%
%ADD11C,0.5000*%
%ADD12C,0.2032*%
%ADD13R,1.5748X1.5748*%
%ADD14C,1.5748*%
%ADD15C,1.6000*%
%ADD17C,1.6510*%
%ADD18C,1.8796*%
%ADD19R,1.9000X1.9000*%
%ADD20C,1.9000*%

%LPD*%
D12*
X4559300Y6274493D02*
G01*
X4559300Y6145184D01*
X4559300Y6219075D02*
G01*
X4550064Y6246784D01*
X4531591Y6265255D01*
X4513117Y6274493D01*
X4485408Y6274493D01*
X4424448Y6219075D02*
G01*
X4313613Y6219075D01*
X4313613Y6237546D01*
X4322848Y6256020D01*
X4332084Y6265255D01*
X4350557Y6274493D01*
X4378266Y6274493D01*
X4396740Y6265255D01*
X4415213Y6246784D01*
X4424448Y6219075D01*
X4424448Y6200602D01*
X4415213Y6172893D01*
X4396740Y6154420D01*
X4378266Y6145184D01*
X4350557Y6145184D01*
X4332084Y6154420D01*
X4313613Y6172893D01*
X4252653Y6274493D02*
G01*
X4197235Y6145184D01*
X4141815Y6274493D02*
G01*
X4197235Y6145184D01*
X3938615Y6302202D02*
G01*
X3920144Y6311437D01*
X3892435Y6339146D01*
X3892435Y6145184D01*
X3822237Y6191364D02*
G01*
X3831475Y6182128D01*
X3822237Y6172893D01*
X3813002Y6182128D01*
X3822237Y6191364D01*
X3752042Y6302202D02*
G01*
X3733568Y6311437D01*
X3705859Y6339146D01*
X3705859Y6145184D01*
X7740141Y6882892D02*
G01*
X7740141Y6716776D01*
X7823200Y6799834D02*
G01*
X7656829Y6799834D01*
X6063741Y6895592D02*
G01*
X6063741Y6729476D01*
X6146800Y6812534D02*
G01*
X5980429Y6812534D01*
D11*
X1676400Y6692900D02*
G01*
X1569747Y6662420D01*
X1282702Y6375400D01*
X1130300Y8216900D02*
G01*
X1320800Y8178800D01*
X1320800Y7810500D01*
X1320800Y7277100D01*
X1676400Y6946900D01*
X4787900Y6921500D02*
G01*
X4965700Y6718300D01*
X4965700Y6718300D01*
X4965700Y7480300D02*
G01*
X4787900Y7340600D01*
X4787900Y7340600D02*
G01*
X4787900Y6921500D01*
X1130300Y7962900D02*
G01*
X1130300Y7962900D01*
X977900Y8166100D01*
X977900Y8597900D01*
X1422402Y8991600D01*
X1130300Y7962900D02*
G01*
X1028702Y7754620D01*
X1028702Y6375400D01*
X6756400Y6324600D02*
G01*
X6908800Y6540500D01*
X6908800Y6870700D01*
X6743702Y6985000D01*
X6743702Y7747000D02*
G01*
X6908800Y7620000D01*
X6908800Y7137400D01*
X6743702Y6985000D01*
D10*
X4965702Y6718300D02*
G01*
X4965700Y6718300D01*
D11*
X5588002Y6718297D02*
G01*
X5588002Y6451597D01*
X5715002Y6324597D01*
D10*
X4965702Y7226300D02*
G01*
X5107104Y7368539D01*
X5107104Y7772400D01*
X5018178Y7861300D01*
X4908425Y7861300D01*
X4578504Y8191500D01*
X4597400Y8801100D01*
X4597400Y9055100D01*
X4495800Y9118600D01*
X4051300Y9118600D01*
X4495800Y9118600D01*
X4051300Y9118600D01*
X4368800Y9118600D01*
X4051300Y9118600D01*
X3848100Y9118600D01*
X3581400Y9118600D01*
X3238500Y9118600D01*
X2959100Y9118600D01*
X2781300Y9118600D01*
X2692402Y8991600D01*
D11*
X7518402Y6324597D02*
G01*
X7251702Y6591297D01*
X7251702Y6705597D01*
X4470402Y8737597D02*
G01*
X4470402Y7975597D01*
X4965702Y7480297D01*
D10*
X4216402Y8737597D02*
G01*
X2679702Y7200897D01*
X1676402Y7200897D01*
X1130302Y7909582D02*
G01*
X1130302Y7962897D01*
X5486402Y8737597D02*
G01*
X5486402Y8496297D01*
X6743702Y7238997D01*
X5232402Y8991597D02*
G01*
X5378300Y8845699D01*
X5546117Y8845699D01*
X5613402Y8778415D01*
X5613402Y8703942D01*
X6316347Y8000997D01*
X6743702Y8000997D01*
X2184402Y8737597D02*
G01*
X1917702Y8470897D01*
X1676402Y8470897D01*
X1930402Y9270997D02*
G01*
X1930402Y8991597D01*
X2552702Y9385297D02*
G01*
X2184402Y9016997D01*
X2184402Y8991597D01*
D13*
G01*
X1028700Y6375400D03*
D14*
G01*
X1282700Y6375400D03*
D13*
G01*
X1676400Y6692900D03*
D14*
G01*
X1676400Y6946900D03*
G01*
X1676400Y7200900D03*
G01*
X1676400Y7454900D03*
G01*
X1676400Y7708900D03*
G01*
X1676400Y7962900D03*
G01*
X1676400Y8216900D03*
G01*
X1676400Y8470900D03*
G36*
X4874259Y6403339D02*
G01*
X5031740Y6403339D01*
X5031740Y6245860D01*
X4874259Y6245860D01*
G37*
G01*
X5207000Y6324600D03*
G01*
X5461000Y6324600D03*
G01*
X5715000Y6324600D03*
G36*
X6677659Y6403339D02*
G01*
X6835140Y6403339D01*
X6835140Y6245860D01*
X6677659Y6245860D01*
G37*
G01*
X7010400Y6324600D03*
G01*
X7264400Y6324600D03*
G01*
X7518400Y6324600D03*
D13*
G01*
X1130300Y7962900D03*
D14*
G01*
X1130300Y8216900D03*
G01*
X1130300Y8470900D03*
D15*
G01*
X6248400Y8991600D03*
G01*
X6248400Y8737600D03*
G01*
X5994400Y8991600D03*
G01*
X5994400Y8737600D03*
G01*
X5740400Y8991600D03*
G01*
X5740400Y8737600D03*
G01*
X5486400Y8991600D03*
G01*
X5486400Y8737600D03*
G01*
X5232400Y8991600D03*
G01*
X5232400Y8737600D03*
G01*
X4978400Y8991600D03*
G01*
X4978400Y8737600D03*
G01*
X4724400Y8991600D03*
G01*
X4724400Y8737600D03*
G01*
X4470400Y8991600D03*
G01*
X4470400Y8737600D03*
G01*
X4216400Y8991600D03*
G01*
X4216400Y8737600D03*
G01*
X3962400Y8991600D03*
G01*
X3962400Y8737600D03*
G01*
X3708400Y8991600D03*
G01*
X3708400Y8737600D03*
G01*
X3454400Y8991600D03*
G01*
X3454400Y8737600D03*
G01*
X3200400Y8991600D03*
G01*
X3200400Y8737600D03*
G01*
X2946400Y8991600D03*
G01*
X2946400Y8737600D03*
G01*
X2692400Y8991600D03*
G01*
X2692400Y8737600D03*
G01*
X2438400Y8991600D03*
G01*
X2438400Y8737600D03*
G01*
X2184400Y8991600D03*
G01*
X2184400Y8737600D03*
G01*
X1930400Y8991600D03*
G01*
X1930400Y8737600D03*
G01*
X1676400Y8991600D03*
G01*
X1676400Y8737600D03*
G01*
X1422400Y8991600D03*
G36*
X1342400Y8817599D02*
G01*
X1502399Y8817599D01*
X1502399Y8657600D01*
X1342400Y8657600D01*
G37*
G36*
X5763259Y6797039D02*
G01*
X5763259Y6639560D01*
X5920740Y6639560D01*
X5920740Y6797039D01*
G37*
D14*
G01*
X5588000Y6718300D03*
G36*
X7426959Y6784339D02*
G01*
X7426959Y6626860D01*
X7584440Y6626860D01*
X7584440Y6784339D01*
G37*
G01*
X7251700Y6705600D03*
D17*
G01*
X1930400Y9525000D03*
G01*
X1930400Y9271000D03*
D18*
G01*
X3314700Y9385300D03*
G01*
X2552700Y9385300D03*
D19*
G01*
X4965700Y6718300D03*
D20*
G01*
X4965700Y6972300D03*
G01*
X4965700Y7226300D03*
G01*
X4965700Y7480300D03*
G01*
X4965700Y7734300D03*
G01*
X4965700Y7988300D03*
D19*
G01*
X6743700Y6731000D03*
D20*
G01*
X6743700Y6985000D03*
G01*
X6743700Y7239000D03*
G01*
X6743700Y7493000D03*
G01*
X6743700Y7747000D03*
G01*
X6743700Y8001000D03*
M02*
